<?xml version="1.0" encoding="utf-8"?>
<!-- Generator: Adobe Illustrator 19.0.0, SVG Export Plug-In . SVG Version: 6.00 Build 0)  -->
<svg version="1.1" id="Layer_1" xmlns="http://www.w3.org/2000/svg" xmlns:xlink="http://www.w3.org/1999/xlink" x="0px" y="0px"
	 viewBox="0 0 371 371" style="enable-background:new 0 0 371 371;" xml:space="preserve">
<style type="text/css">
	.st0{fill:#333333;}
	.st1{fill:#FFFFFF;}
	.st2{fill:#F57E20;}
</style>
<rect id="XMLID_1483_" class="st0" width="371" height="371"/>
<g id="XMLID_1247_">
	<path id="XMLID_1248_" class="st1" d="M141.9,92.3c-2.6,0-5.1,0.1-7.4,0.2c2.4,1.9,3.6,3.7,3.6,5.6c0,0.6-0.3,1.1-0.8,1.6
		c-0.8,2.6-1.1,6.8-1.1,12.6c0,15.7,0.4,31.9,1.3,48.7c0,4.8-1.9,9.9-5.8,15.4c-3.5,4.7-6.3,7-8.4,7c-2.5,0-4.4-1.6-5.8-4.7
		c-1.9-4.3-6.9-10.7-14.9-19.1c0-1.3,0.6-1.9,1.8-1.9c5.6,3.3,9.8,4.9,12.5,4.9c2.2,0,3.5-2.2,4-6.7c0.8-7,1.1-17.8,1.1-32.4
		c0-6.2-0.3-13.3-1-21.4c-0.3-4.1-0.9-7.2-1.6-9.5c-11.9,0.4-22.1,1.1-30.6,2.1c-11.9,1.2-23.3,3-34.3,5.4c-2.4,0.8-4.7,1.2-7,1.2
		c-2.8,0-5.8-1.5-8.9-4.4c-2.8-3.2-4.2-5.1-4.2-6c0-0.9,0.4-1.4,1.3-1.4c8.4,0,26.4-1.6,54-4.7c26.6-2.9,47.3-5.7,61.8-8.4
		c1.3-0.2,2.4-0.4,3.4-0.4c3.2,0,7.1,1.2,11.5,3.7c4,2.9,6,6,6,9.1c0,4.2-1.6,6.3-4.7,6.3c-2.8,0-7.8-0.5-14.9-1.6
		C148.4,92.7,144.8,92.3,141.9,92.3z M61.5,107c2.5,0,5.3,0.5,8.6,1.4c0.6,0.4,1.3,0.8,1.9,1.2c2.7-0.5,5.3-1,7.8-1.6
		c4-0.7,7.7-2.2,11.2-4.4c2.3-1.5,3.9-2.3,5-2.3c1.3,0,4.3,1.1,8.9,3.3c5.2,3.4,7.8,5.8,7.8,7.4c0,0.7-0.2,1.3-0.5,1.8
		c-3.3,3.9-5.3,6.8-6,8.9c-1.3,2.7-2.2,5.1-2.6,7.4v0.2c2.3,3.3,3.4,5.6,3.4,6.8c-0.2,0.4-0.5,0.5-1,0.5c-6.4,0-12.6,0.4-18.6,1.2
		c-4,0.7-6.7,1.1-8.3,1.2c-0.3,4.1-1.6,6.1-3.9,6.1c-1.7,0-3.3-0.9-4.7-2.8c-1.3-1.6-1.9-3-1.9-4c-1.2-2.9-2.2-7.7-3.1-14.4
		c-0.9-4.1-1.9-7.4-3.2-9.8c-0.8-2.2-1.8-3.7-3.2-4.6C59.1,108.2,59.9,107,61.5,107z M130.2,32.7c0.9,0,2.5,0.5,4.9,1.4
		c2.7,1.9,4,3.5,4,4.9c0,1.3-0.2,2.5-0.5,3.5c-0.4,1.2-1.1,1.9-1.9,2.3c-10,2.3-20.4,4.4-31.2,6.1c-0.3,0.9-0.6,1.8-0.8,2.6
		c4.3,1.3,8.7,2.7,13.3,4.2c5.9,2.3,9.8,4.4,11.7,6.3c1.6,1.9,2.4,3.8,2.4,5.8c0,2.1-0.5,4.3-1.6,6.5c-1.2,1.8-2.8,2.6-4.9,2.6
		c-2.4,0-4-0.9-5-2.8c-1.9-1.2-4.7-3.6-8.3-7.2c-4.4-5.3-7.6-8.8-9.5-10.5c-2.4,5.4-5.6,10.2-9.5,14.5c-4.2,4.4-8.5,7.5-12.8,9.3
		c-2.4,1.1-4.3,1.6-5.8,1.6c-0.9,0-1.3-0.2-1.3-0.5c2-2.2,4.2-4.4,6.3-6.7c4.3-5.3,7.4-10.3,9.4-15.1c1.1-2.5,2-5.3,2.9-8.6
		c-3.7,0.5-6.7,0.7-9.1,0.7c-6.1,0-10.2-1.5-12.1-4.4c-1.4-1.9-2.1-3.2-2.1-3.9c0-0.9,0.4-1.4,1.3-1.4c9.3-0.6,17.5-1.3,24.6-2.3
		c1-5.4,1.5-10.7,1.5-16.1c0-2.7-0.9-5.5-2.6-8.4c0-1.3,0.9-1.9,2.6-1.9c3.1,0,6,0.8,8.7,2.3c5.8,2.8,8.7,5,8.7,6.7
		c0,0.5-0.3,1-1,1.6c-1.1,2-1.8,3.7-2.1,5.3c-0.5,3-1.1,5.8-1.8,8.2c6.7-1.6,12.6-3.5,17.8-5.6C127.6,33,128.8,32.7,130.2,32.7z
		 M77.8,130.5c1.8-0.2,3.9-0.6,6.1-1.1c3.6-0.5,6.5-1.1,8.9-1.8c0.8-5.6,1.1-9.7,1.1-12.3c0-0.9-0.7-1.4-2.1-1.4
		c-1.2,0-3.5,0.5-7,1.6c-3.2,1.2-6.1,1.9-8.7,2.1L77.8,130.5z"/>
	<path id="XMLID_1253_" class="st1" d="M215.5,37.8c2.6,0,5.6,0.8,9.1,2.5c6.6-0.7,13-2.7,19.3-6c2.3-1.1,4-1.6,5.3-1.6
		c1.9,0,4.1,0.9,6.5,2.6c3.1,2.1,4.7,3.8,4.7,5.1c0,0.9-0.4,2-1.3,3.3c-1.6,2.3-2.4,7.1-2.4,14.2c-0.1,14.4-0.7,23.1-1.8,26.1
		c-1.2,3.7-2.2,5.6-2.9,5.6c-1,0-2.1-1.1-3.4-3.2c-4.6,0.1-9.2,0.6-13.8,1.4c-2.8,0.5-5,0.8-6.5,0.9c-0.9,27.5-2.1,49.7-3.6,66.8
		c-0.3,2-1.2,4.1-2.8,6.3c-1.7,1.9-3.2,2.8-4.4,2.8c-2.7,0-4.7-2.3-6.1-7c-1.6-3.7-2.4-6.5-2.4-8.4c0.1,0,0.3-1.1,0.6-3.2
		c2.8-11.3,4.5-20.3,5-26.8c1.5-14.5,2.3-32.5,2.3-54.2c-0.6-12.1-1.8-19.9-3.6-23.3c-0.2-1.1-0.3-1.8-0.3-2.1
		C213.1,38.4,213.9,37.8,215.5,37.8z M228.6,81.2c1.3-0.1,2.7-0.3,4.2-0.7c3.9-0.7,7-1.5,9.4-2.5c0.6-0.4,1.3-0.5,1.9-0.5
		c0.2,0,0.4,0.1,0.6,0.2c0-0.3,0-0.6,0-0.9c0-0.9,0-1.9,0-2.8c0.3-2.5,0.5-5.1,0.6-8.1c0.3-4.8,0.5-11.2,0.6-19.3
		c0-1.8-0.4-2.6-1.3-2.6c-1.4,0-6.6,0.9-15.5,2.6c-0.1,2.8-0.2,7.3-0.2,13.5c0,0.2,0,0.5,0,0.9c1.5-0.6,2.8-1.2,3.9-1.8
		c1.8-0.8,3.1-1.2,3.9-1.2c4.9,0.2,7.3,2.3,7.3,6.1c0,1.2-0.8,1.8-2.4,1.9c-1.8,0.2-4.3,0.6-7.3,1.1c-1.9,0.5-3.7,0.7-5.3,0.7H229
		C228.8,72.5,228.7,76.9,228.6,81.2z M276.4,29.4c1.6,0,3.8,0.4,6.6,1.2c1.5,0.5,2.8,1,3.7,1.6c0.3,0,0.6-0.1,1-0.2
		c5.7-1.2,11.4-2.6,17.2-4.2c2.7-0.8,4.8-1.8,6.3-2.8c0.6-0.5,1.1-0.7,1.5-0.7c1.7,0,4.9,1.1,9.5,3.2c5.4,3,8.1,5.8,8.1,8.2
		c0,0.5-0.2,1.2-0.5,2.1c-1.4,6.8-2.1,20.1-2.1,40c0,4.1,0.5,18.3,1.5,42.6c0.8,18.6,1.1,31.3,1.1,38c0,2.8-1.7,6.9-5,12.3
		c-3.8,4.9-6.9,7.4-9.2,7.4c-14.7-15.2-22-23.2-22-24c0-0.5,0.2-0.7,0.6-0.7c8,2.9,13.2,4.4,15.5,4.4c1.4,0,2.3-3.3,2.6-9.8
		c0.9-9.2,1.3-28.7,1.3-58.4c0-3.3,0-7,0-11c-4.9,0.2-9.7,0.8-14.4,1.8c-5.4,1.1-8.8,1.6-10.4,1.8c-0.2,0.2-0.4,0.5-0.6,0.9
		c-0.8,1.6-2.1,2.5-3.9,2.5c-0.9,0-2.3-1.5-4.4-4.4c-1.4-2.2-2.1-3.6-2.1-4l0.8-7c-0.3-18.9-1.8-30.3-4.4-34c-1-1.9-1.5-3.2-1.5-3.9
		C273.3,30.2,274.3,29.4,276.4,29.4z M313.7,68.6c-0.2-8.6-0.6-18.5-1.1-29.6c0-1.3-1.2-1.9-3.7-1.9c-1.6,0-4,0.2-7.3,0.5
		c-4,0.7-8.4,1.8-13.3,3.3l0.6,11.7c3.5-0.6,6.6-1.3,9.5-2.1c0.9-0.1,1.5-0.2,1.9-0.2c6.5,0,9.7,2.3,9.7,7c0,0.4-0.4,0.6-1.1,0.7
		c-3.9,0.7-7.6,1.2-11,1.6c-2.8,0.4-4.6,0.5-5.3,0.5c-1.3,0-2.4-0.2-3.4-0.5l0.5,13.5c2.3-0.4,4.8-0.8,7.6-1.4
		c5.3-0.8,9.5-1.8,12.8-2.8c0.9-0.2,1.7-0.4,2.4-0.4C313.2,68.6,313.5,68.6,313.7,68.6z"/>
	<path id="XMLID_1258_" class="st1" d="M56.9,250.9c2,0,5.1,0.8,9.2,2.5c4.7,2,7.1,4.5,7.1,7.5c0,1.2-0.8,2.5-2.4,3.9
		c-4,2.3-6.5,4.6-7.4,6.8c-2.5,6.9-3.7,11.5-3.7,13.8c0,0.4,0.1,1.1,0.3,2.3c4.5,6.7,6.8,12.4,6.8,17.3c0,2.3-1,5.1-3.1,8.4
		c-0.4,0.5-0.8,0.8-1,1.1c6.6,1.2,17.6,4.3,33.2,9.3c8.2,2.8,17.7,5,28.6,6.7c6,1.1,24.1,1.9,54.2,2.5c0.4,0,0.6,0.5,0.6,1.6
		c0,0.4-0.5,0.8-1.6,1.2c-6.5,5-13.6,8.9-21.5,11.6c-6.1,2.7-10.7,4-13.8,4c-2,0-3.5-0.3-4.4-0.9c-7.3-2.3-13.9-4.5-19.7-6.5
		c-22.5-9.7-40.3-16.1-53.2-19.3c-2.4-0.6-4.6-0.9-6.8-0.9c-3.7,0-9.2,1.2-16.5,3.7c-1.4,0.5-2.4,0.7-2.9,0.7
		c-1.6,0-3.4-1.3-5.3-3.9c-2.6-2.7-3.9-5.4-3.9-8.2c0-0.4,0.3-0.5,0.8-0.5c11.1-0.8,19.3-1.3,24.6-1.4c0-0.6-0.1-1.3-0.2-2.1
		c0-3.4-0.4-7-1.3-10.9c-0.8-4.4-1.8-8-3.2-10.7c-0.4-1.8-0.6-3.4-0.6-5.1c0-3,1.5-9.2,4.5-18.6v-0.3c0-0.6-0.4-0.9-1.1-0.9
		c-4.6,2-8.4,3-11.2,3c-3,0-5.5-0.8-7.4-2.5c-1.4-1.2-2.1-2.5-2.1-3.9c0-0.5,0.6-0.7,1.8-0.7c3.6,0,7.2-0.8,10.8-2.3
		c3.3-1.3,6.4-3.6,9.2-6.8C55.3,251.5,56.2,250.9,56.9,250.9z M44.2,209.8c1.7,0,3.8,0.2,6.3,0.7c6,1.4,10.6,3.2,13.6,5.3
		c2.7,1.8,4,4.4,4,8.1c0,1.9-0.9,3.8-2.6,5.8c-2.1,1.8-4,2.6-5.8,2.6c-1.5,0-2.9-0.8-4.2-2.5c-2.8-2.7-6.6-8.3-11.5-16.8
		c-0.9-0.8-1.3-1.5-1.3-1.9C42.9,210.2,43.4,209.8,44.2,209.8z M132,196.3c1.9,0,5.2,1.5,9.9,4.6c4.3,3.4,6.5,6.4,6.5,8.9
		c0,1.6-0.9,2.6-2.8,3c-3.2,0.5-6.3,1.2-9.1,2.3c-14.5,5.4-25.5,8.1-33,8.1c-0.1,0-0.2,0-0.3,0c-0.1,0.5-0.2,0.8-0.2,1.1
		c-0.5,5.8-1.1,11.3-1.8,16.5c0.1,0,0.3,0,0.5,0c6.9-1.2,13.3-2.3,19.3-3.3c0.5-3.6,0.8-6.5,0.8-8.8c0-0.7-0.6-2.3-1.9-4.7
		c0-0.9,1.1-1.4,3.2-1.4c3.3,0,6.6,0.7,9.7,2.1c3.5,1.2,5.2,2.5,5.2,4c0,0.7-0.4,1.9-1.3,3.7c-0.3,0.7-0.6,1.3-1,1.9
		c5.3-1.2,10.7-2.5,16.2-4c1.9-0.5,3.8-0.7,5.5-0.7c2.2,0,4.6,0.9,7.3,2.6c2.5,1.5,3.7,3.7,3.7,6.5c0,2.2-0.7,3.3-2.1,3.3
		c-12.8,0-24.7,0.9-35.4,2.8c-2.3,4.8-5,9.6-8.1,14.5c1.2-0.4,2.5-0.7,3.9-1.1c4.2-0.7,8.8-2,13.9-3.9c0.9-0.2,1.7-0.4,2.6-0.4
		c1.3,0,4.4,1.3,9.2,4c5.9,3.5,8.9,5.8,8.9,7c0,0.2-0.2,0.6-0.6,1.1c-3,6.1-4.5,10.4-4.5,13c0,6,0.6,12.9,1.8,20.9
		c0.5,7,0.8,11.6,0.8,13.7c0,2.7-1.6,5.6-4.9,8.8c-3.5,3-6.4,4.6-8.9,4.6c-0.3,0-0.8-1.2-1.3-3.5c-1.9-4.8-3.8-8.8-5.7-11.9
		c-4.6,0.1-9.3,0.5-13.9,1.1c-5.8,0.7-9.4,1.1-10.7,1.1c-0.3,0.8-0.9,1.7-1.6,2.6c-1.4,1.4-2.6,2.1-3.6,2.1c-2,0-3.7-1.8-4.9-5.3
		c-1.1-2.9-1.6-5.1-1.6-6.5l0.2-1.1c0.9-3.7,1.4-6.6,1.6-8.6c0.4-4.8,0.6-10.7,0.6-17.9c-0.3-9-1.1-14.8-2.3-17.3
		c-0.1-0.7-0.2-1.2-0.2-1.4c0-1.5,0.6-2.3,1.8-2.3c2.3,0,4.9,0.8,7.9,2.5c0.3,0.1,0.6,0.2,0.8,0.4c1.5-0.1,3-0.3,4.5-0.5
		c1-4.6,1.8-9.1,2.6-13.5c-1.6,0.4-3.2,0.8-4.9,1.2c-2.2,0.6-3.5,0.9-3.9,0.9c-1.6,0-3.8-1.1-6.5-3.2c-1.7-1.5-2.8-2.8-3.1-3.9
		c-1.2,9.9-2.8,18.8-4.9,26.5c-2.9,10.2-6.4,18.7-10.5,25.6c-3.7,6.1-8.6,11.7-14.9,17c-0.6,0.8-1.4,1.2-2.3,1.2v-0.7
		c3.6-6.1,6.4-12.1,8.6-18.2c4.3-11.1,7.4-22.4,9.2-33.8c1.6-11.1,2.4-22.1,2.4-32.9c0-3.2-0.4-5.4-1.3-6.7c-0.9-1.4-1.3-2.4-1.3-3
		c0-1.4,0.4-2.1,1.3-2.1c2.4,0,6,0.6,10.8,1.8c2.9,0.5,4.7,1.3,5.5,2.6c1.7-0.6,3.4-1.3,5-2.1c6.7-3.2,12.1-6.5,16.3-10.2
		c2.7-2.2,4.6-4.7,5.7-7.5C131.1,197.3,131.5,196.3,132,196.3z M113.7,304c2.2-0.4,4.7-0.8,7.8-1.2c5.1-0.7,9.1-1.5,12.1-2.3
		c0.9-0.2,1.7-0.4,2.4-0.4c2.6,0,4.9,1.1,6.8,3.3c0.1,0.2,0.2,0.5,0.3,0.7c0.4-3.4,0.6-9.2,0.6-17.5c0-6.5-0.2-12-0.6-16.5
		c-0.4-2-1.4-3.3-2.9-4c-0.8-0.4-2.2-0.5-4.2-0.5c-0.5,0-1.2,0.1-1.9,0.2c-7.7,0.9-13.7,1.9-18.1,3c-0.8,0.4-1.4,0.5-1.9,0.5
		c-0.2,0-0.4-0.1-0.5-0.2c-0.1,1.6-0.2,3.6-0.2,5.8c0,0.2,0,0.5,0,0.7c4-0.8,7.8-1.9,11.5-3.2c0.9-0.4,1.6-0.5,2.1-0.5
		c6.5,0,9.7,2.3,9.7,7c0,0.6-0.4,1-1.1,1.2c-4.4,1.1-8.5,1.8-12.3,2.3c-3.2,0.6-5.3,0.9-6.1,0.9c-1.3,0-2.5-0.2-3.7-0.5
		c0.1,2.1,0.2,4.2,0.2,6.3c4.6-0.8,9-1.8,13.1-2.8c1-0.2,1.7-0.4,2.3-0.4c6.4,0,9.5,2.4,9.5,7.2c0,0.4-0.4,0.6-1.1,0.7
		c-4.9,0.9-9.3,1.6-13.4,1.9c-3.6,0.6-5.8,0.9-6.8,0.9c-1.2,0-2.3-0.2-3.4-0.7C113.7,298.9,113.7,301.6,113.7,304z"/>
	<path id="XMLID_1263_" class="st1" d="M214.2,211c2.9,0,6.3,0.5,10.2,1.6c0.5,0.2,1.1,0.5,1.6,0.7c23-1.6,48.7-5.1,77-10.5
		c2.2,0,6.4,1.7,12.6,5.1c7.5,4.8,11.3,8.2,11.3,10.2c0,0.9-0.5,2-1.6,3.3c-3.6,5.3-6.4,11.5-8.6,18.8c-1.6,8.8-4.3,19-7.9,30.7
		c-1.1,2.9-3,5.4-5.7,7.4c-2.1,1.1-3.9,1.6-5.5,1.6c-1.2,0-2.2-0.8-3.1-2.3c-0.8-1.5-1.7-2.8-2.9-3.9c-6,0-12,0.2-18,0.7
		c-0.1,18-0.4,30.6-1,37.7c-0.3,11.7-1.4,20.7-3.2,27.2c-1.8,7.2-3.7,10.9-5.5,10.9c-1.8,0-3-3.8-3.6-11.4
		c-0.8-1.6-1.2-22.7-1.5-63.3c-0.5,0-1.1,0-1.8,0c-10.3,0.9-17,1.5-20.4,1.6c-0.8,2.3-2,3.5-3.7,3.5c-2.2,0-4-1-5.7-3
		c-1.4-1.9-2.1-3.4-2.1-4.7c-1.9-5.7-3.5-15.4-4.7-29.1c-1.1-8.3-2.4-14.8-4-19.6c-1.3-4.4-2.9-7.5-4.9-9.3
		C211.8,212.2,212.6,211,214.2,211z M236.9,267.8c5.6-0.2,12.9-0.9,22-1.9h0.2c0-5.4,0-11.1,0-17.2c-1.6,0.1-3,0.2-4,0.2
		c-6.1,0-10.2-1.5-12.1-4.4c-1.3-1.9-1.9-3.2-1.9-3.9c0-0.9,0.4-1.4,1.1-1.4c6.5-0.4,12.1-0.8,17-1.2c0-1.3,0-2.6,0-3.9
		c0-5.7-0.9-10.6-2.6-14.5c-9.9,0.9-18.2,1.5-24.9,1.8L236.9,267.8z M271.2,218c3.9,1.6,5.8,3.3,5.8,5.1c0,1.2-0.2,2.5-0.6,3.9
		c-1.2,1.8-1.9,4.6-2.3,8.6c3-0.7,5.7-1.5,8.1-2.3c0.8-0.2,1.6-0.4,2.6-0.4c1.1,0,2.8,0.4,5,1.2c2.8,2,4.2,3.7,4.2,5.1
		c0,1.2-0.2,2.2-0.6,3.2c-0.4,1.4-1.1,2.2-2.1,2.5c-5.6,0.9-11.4,1.8-17.3,2.5c0,6.1,0,11.8,0,17.2c4.6-0.5,8.7-1,12.1-1.6
		c1.8-0.4,3.6-0.5,5.2-0.5s3,0.3,4,0.9c2.7-8.2,4.7-16.4,6-24.5c1.2-6.9,1.8-13.1,1.8-18.6c0-3.6-1.4-5.4-4-5.4
		C288.9,216,279.6,217.1,271.2,218z"/>
</g>
<g id="XMLID_1194_">
	<path id="XMLID_1228_" class="st2" d="M144.9,86.2c-2.6,0-5.1,0.1-7.4,0.2c2.4,1.9,3.6,3.7,3.6,5.6c0,0.6-0.3,1.1-0.8,1.6
		c-0.8,2.6-1.1,6.8-1.1,12.6c0,15.7,0.4,31.9,1.3,48.7c0,4.8-1.9,9.9-5.8,15.4c-3.5,4.7-6.3,7-8.4,7c-2.5,0-4.4-1.6-5.8-4.7
		c-1.9-4.3-6.9-10.7-14.9-19.1c0-1.3,0.6-1.9,1.8-1.9c5.6,3.3,9.8,4.9,12.5,4.9c2.2,0,3.5-2.2,4-6.7c0.8-7,1.1-17.8,1.1-32.4
		c0-6.2-0.3-13.3-1-21.4c-0.3-4.1-0.9-7.2-1.6-9.5c-11.9,0.3-22.1,1.1-30.6,2.1c-11.9,1.2-23.3,3-34.3,5.4c-2.4,0.8-4.7,1.2-7,1.2
		c-2.8,0-5.8-1.5-8.9-4.4c-2.8-3.2-4.2-5.1-4.2-6c0-0.9,0.4-1.4,1.3-1.4c8.4,0,26.4-1.6,54-4.7c26.6-2.9,47.3-5.7,61.8-8.4
		c1.3-0.2,2.4-0.4,3.4-0.4c3.2,0,7.1,1.2,11.5,3.7c4,2.9,6,6,6,9.1c0,4.2-1.6,6.3-4.7,6.3c-2.8,0-7.8-0.5-14.9-1.6
		C151.4,86.7,147.8,86.2,144.9,86.2z M64.5,100.9c2.5,0,5.3,0.5,8.6,1.4c0.6,0.3,1.3,0.8,1.9,1.2c2.7-0.5,5.3-1,7.8-1.6
		c4-0.7,7.7-2.2,11.2-4.4c2.3-1.5,3.9-2.3,5-2.3c1.3,0,4.3,1.1,8.9,3.3c5.2,3.4,7.8,5.8,7.8,7.4c0,0.7-0.2,1.3-0.5,1.8
		c-3.3,3.9-5.3,6.8-6,8.9c-1.3,2.7-2.2,5.1-2.6,7.4v0.2c2.3,3.3,3.4,5.5,3.4,6.8c-0.2,0.3-0.5,0.5-1,0.5c-6.4,0-12.6,0.4-18.6,1.2
		c-4,0.7-6.7,1.1-8.3,1.2c-0.3,4.1-1.6,6.1-3.9,6.1c-1.7,0-3.3-0.9-4.7-2.8c-1.3-1.6-1.9-3-1.9-4c-1.2-2.9-2.2-7.7-3.1-14.4
		c-0.9-4.1-1.9-7.4-3.2-9.8c-0.8-2.2-1.8-3.7-3.2-4.6C62.1,102.1,62.9,100.9,64.5,100.9z M133.2,26.6c0.9,0,2.5,0.5,4.9,1.4
		c2.7,1.9,4,3.5,4,4.9c0,1.3-0.2,2.5-0.5,3.5c-0.4,1.2-1.1,1.9-1.9,2.3c-10,2.3-20.4,4.4-31.2,6.1c-0.3,0.9-0.6,1.8-0.8,2.6
		c4.3,1.3,8.7,2.7,13.3,4.2c5.9,2.3,9.8,4.4,11.7,6.3c1.6,1.9,2.4,3.8,2.4,5.8c0,2.1-0.5,4.3-1.6,6.5c-1.2,1.8-2.8,2.6-4.9,2.6
		c-2.4,0-4-0.9-5-2.8c-1.9-1.2-4.7-3.6-8.3-7.2c-4.4-5.3-7.6-8.8-9.5-10.5c-2.4,5.4-5.6,10.2-9.5,14.5c-4.2,4.4-8.5,7.5-12.8,9.3
		c-2.4,1.1-4.3,1.6-5.8,1.6c-0.9,0-1.3-0.2-1.3-0.5c2-2.2,4.2-4.4,6.3-6.7c4.3-5.3,7.4-10.3,9.4-15.1c1.1-2.5,2-5.3,2.9-8.6
		c-3.7,0.5-6.7,0.7-9.1,0.7c-6.1,0-10.2-1.5-12.1-4.4c-1.4-1.9-2.1-3.2-2.1-3.9c0-0.9,0.4-1.4,1.3-1.4c9.3-0.6,17.5-1.3,24.6-2.3
		c1-5.4,1.5-10.7,1.5-16.1c0-2.7-0.9-5.5-2.6-8.4c0-1.3,0.9-1.9,2.6-1.9c3.1,0,6,0.8,8.7,2.3c5.8,2.8,8.7,5,8.7,6.7
		c0,0.5-0.3,1-1,1.6c-1.1,2-1.8,3.7-2.1,5.3c-0.5,3-1.1,5.8-1.8,8.2c6.7-1.6,12.6-3.5,17.8-5.6C130.6,27,131.8,26.6,133.2,26.6z
		 M80.8,124.4c1.8-0.2,3.9-0.6,6.1-1.1c3.6-0.5,6.5-1.1,8.9-1.8c0.8-5.6,1.1-9.7,1.1-12.3c0-0.9-0.7-1.4-2.1-1.4
		c-1.2,0-3.5,0.5-7,1.6c-3.2,1.2-6.1,1.9-8.7,2.1L80.8,124.4z"/>
	<path id="XMLID_1233_" class="st2" d="M218.5,31.7c2.6,0,5.6,0.8,9.1,2.5c6.6-0.7,13-2.7,19.3-6c2.3-1.1,4-1.6,5.3-1.6
		c1.9,0,4.1,0.9,6.5,2.6c3.1,2.1,4.7,3.8,4.7,5.1c0,0.9-0.4,2-1.3,3.3c-1.6,2.3-2.4,7.1-2.4,14.2c-0.1,14.4-0.7,23.1-1.8,26.1
		c-1.2,3.7-2.2,5.6-2.9,5.6c-1,0-2.1-1.1-3.4-3.2c-4.6,0.1-9.2,0.6-13.8,1.4c-2.8,0.5-5,0.8-6.5,0.9c-0.9,27.5-2.1,49.7-3.6,66.8
		c-0.3,2-1.2,4.1-2.8,6.3c-1.7,1.9-3.2,2.8-4.4,2.8c-2.7,0-4.7-2.3-6.1-7c-1.6-3.7-2.4-6.5-2.4-8.4c0.1,0,0.3-1.1,0.6-3.2
		c2.8-11.3,4.5-20.3,5-26.8c1.5-14.5,2.3-32.5,2.3-54.2c-0.6-12.1-1.8-19.9-3.6-23.3c-0.2-1.1-0.3-1.8-0.3-2.1
		C216.1,32.3,216.9,31.7,218.5,31.7z M231.6,75.2c1.3-0.1,2.7-0.4,4.2-0.7c3.9-0.7,7-1.5,9.4-2.5c0.6-0.4,1.3-0.5,1.9-0.5
		c0.2,0,0.4,0.1,0.6,0.2c0-0.3,0-0.6,0-0.9c0-0.9,0-1.9,0-2.8c0.3-2.5,0.5-5.1,0.6-8.1c0.3-4.8,0.5-11.2,0.6-19.3
		c0-1.8-0.4-2.6-1.3-2.6c-1.4,0-6.6,0.9-15.5,2.6c-0.1,2.8-0.2,7.3-0.2,13.5c0,0.2,0,0.5,0,0.9c1.5-0.6,2.8-1.2,3.9-1.8
		c1.8-0.8,3.1-1.2,3.9-1.2c4.9,0.2,7.3,2.3,7.3,6.1c0,1.2-0.8,1.8-2.4,1.9c-1.8,0.2-4.3,0.6-7.3,1.1c-1.9,0.5-3.7,0.7-5.3,0.7H232
		C231.8,66.4,231.7,70.8,231.6,75.2z M279.4,23.3c1.6,0,3.8,0.4,6.6,1.2c1.5,0.5,2.8,1,3.7,1.6c0.3,0,0.6-0.1,1-0.2
		c5.7-1.2,11.4-2.6,17.2-4.2c2.7-0.8,4.8-1.8,6.3-2.8c0.6-0.5,1.1-0.7,1.5-0.7c1.7,0,4.9,1.1,9.5,3.2c5.4,3,8.1,5.8,8.1,8.2
		c0,0.5-0.2,1.2-0.5,2.1c-1.4,6.8-2.1,20.1-2.1,40c0,4.1,0.5,18.3,1.5,42.6c0.8,18.6,1.1,31.3,1.1,38c0,2.8-1.7,6.9-5,12.3
		c-3.8,4.9-6.9,7.4-9.2,7.4c-14.7-15.2-22-23.2-22-24c0-0.5,0.2-0.7,0.6-0.7c8,2.9,13.2,4.4,15.5,4.4c1.4,0,2.3-3.3,2.6-9.8
		c0.9-9.2,1.3-28.7,1.3-58.4c0-3.3,0-7,0-11c-4.9,0.2-9.7,0.8-14.4,1.8c-5.4,1.1-8.8,1.6-10.4,1.8c-0.2,0.2-0.4,0.5-0.6,0.9
		c-0.8,1.6-2.1,2.5-3.9,2.5c-0.9,0-2.3-1.5-4.4-4.4c-1.4-2.2-2.1-3.6-2.1-4l0.8-7c-0.3-18.9-1.8-30.3-4.4-34c-1-1.9-1.5-3.2-1.5-3.9
		C276.3,24.2,277.3,23.3,279.4,23.3z M316.7,62.5c-0.2-8.6-0.6-18.5-1.1-29.6c0-1.3-1.2-1.9-3.7-1.9c-1.6,0-4,0.2-7.3,0.5
		c-4,0.7-8.4,1.8-13.3,3.3l0.6,11.7c3.5-0.6,6.6-1.3,9.5-2.1c0.9-0.1,1.5-0.2,1.9-0.2c6.5,0,9.7,2.3,9.7,7c0,0.4-0.4,0.6-1.1,0.7
		c-3.9,0.7-7.6,1.2-11,1.6c-2.8,0.4-4.6,0.5-5.3,0.5c-1.3,0-2.4-0.2-3.4-0.5l0.5,13.5c2.3-0.3,4.8-0.8,7.6-1.4
		c5.3-0.8,9.5-1.8,12.8-2.8c0.9-0.2,1.7-0.4,2.4-0.4C316.2,62.5,316.5,62.5,316.7,62.5z"/>
	<path id="XMLID_1238_" class="st2" d="M59.9,244.9c2,0,5.1,0.8,9.2,2.5c4.7,2,7.1,4.5,7.1,7.5c0,1.2-0.8,2.5-2.4,3.9
		c-4,2.3-6.5,4.6-7.4,6.8c-2.5,6.9-3.7,11.5-3.7,13.8c0,0.3,0.1,1.1,0.3,2.3c4.5,6.7,6.8,12.4,6.8,17.3c0,2.3-1,5.1-3.1,8.4
		c-0.4,0.5-0.8,0.8-1,1.1c6.6,1.2,17.6,4.3,33.2,9.3c8.2,2.8,17.7,5,28.6,6.7c6,1.1,24.1,1.9,54.2,2.5c0.4,0,0.6,0.5,0.6,1.6
		c0,0.3-0.5,0.8-1.6,1.2c-6.5,5-13.6,8.9-21.5,11.6c-6.1,2.7-10.7,4-13.8,4c-2,0-3.5-0.3-4.4-0.9c-7.3-2.3-13.9-4.5-19.7-6.5
		c-22.5-9.7-40.3-16.1-53.2-19.3c-2.4-0.6-4.6-0.9-6.8-0.9c-3.7,0-9.2,1.2-16.5,3.7c-1.4,0.5-2.4,0.7-2.9,0.7
		c-1.6,0-3.4-1.3-5.3-3.9c-2.6-2.7-3.9-5.4-3.9-8.2c0-0.4,0.3-0.5,0.8-0.5c11.1-0.8,19.3-1.3,24.6-1.4c0-0.6-0.1-1.3-0.2-2.1
		c0-3.4-0.4-7-1.3-10.9c-0.8-4.4-1.8-8-3.2-10.7c-0.4-1.8-0.6-3.4-0.6-5.1c0-3,1.5-9.2,4.5-18.6v-0.3c0-0.6-0.4-0.9-1.1-0.9
		c-4.6,2-8.4,3-11.2,3c-3,0-5.5-0.8-7.4-2.5c-1.4-1.2-2.1-2.5-2.1-3.9c0-0.5,0.6-0.7,1.8-0.7c3.6,0,7.2-0.8,10.8-2.3
		c3.3-1.3,6.4-3.6,9.2-6.8C58.3,245.4,59.2,244.9,59.9,244.9z M47.2,203.7c1.7,0,3.8,0.2,6.3,0.7c6,1.4,10.6,3.2,13.6,5.3
		c2.7,1.8,4,4.4,4,8.1c0,1.9-0.9,3.8-2.6,5.8c-2.1,1.8-4,2.6-5.8,2.6c-1.5,0-2.9-0.8-4.2-2.5c-2.8-2.7-6.6-8.3-11.5-16.8
		c-0.9-0.8-1.3-1.5-1.3-1.9C45.9,204.1,46.4,203.7,47.2,203.7z M135,190.2c1.9,0,5.2,1.5,9.9,4.6c4.3,3.4,6.5,6.4,6.5,8.9
		c0,1.6-0.9,2.6-2.8,3c-3.2,0.5-6.3,1.2-9.1,2.3c-14.5,5.4-25.5,8.1-33,8.1c-0.1,0-0.2,0-0.3,0c-0.1,0.5-0.2,0.8-0.2,1.1
		c-0.5,5.8-1.1,11.3-1.8,16.5c0.1,0,0.3,0,0.5,0c6.9-1.2,13.3-2.3,19.3-3.3c0.5-3.6,0.8-6.5,0.8-8.8c0-0.7-0.6-2.3-1.9-4.7
		c0-0.9,1.1-1.4,3.2-1.4c3.3,0,6.6,0.7,9.7,2.1c3.5,1.2,5.2,2.5,5.2,4c0,0.7-0.4,1.9-1.3,3.7c-0.3,0.7-0.6,1.3-1,1.9
		c5.3-1.2,10.7-2.5,16.2-4c1.9-0.5,3.8-0.7,5.5-0.7c2.2,0,4.6,0.9,7.3,2.6c2.5,1.5,3.7,3.7,3.7,6.5c0,2.2-0.7,3.3-2.1,3.3
		c-12.8,0-24.7,0.9-35.4,2.8c-2.3,4.8-5,9.6-8.1,14.5c1.2-0.3,2.5-0.7,3.9-1.1c4.2-0.7,8.8-2,13.9-3.9c0.9-0.2,1.7-0.4,2.6-0.4
		c1.3,0,4.4,1.3,9.2,4c5.9,3.5,8.9,5.8,8.9,7c0,0.2-0.2,0.6-0.6,1.1c-3,6.1-4.5,10.4-4.5,13c0,6,0.6,12.9,1.8,20.9
		c0.5,7,0.8,11.6,0.8,13.7c0,2.7-1.6,5.6-4.9,8.8c-3.5,3-6.4,4.6-8.9,4.6c-0.3,0-0.8-1.2-1.3-3.5c-1.9-4.8-3.8-8.8-5.7-11.9
		c-4.6,0.1-9.3,0.5-13.9,1.1c-5.8,0.7-9.4,1.1-10.7,1.1c-0.3,0.8-0.9,1.7-1.6,2.6c-1.4,1.4-2.6,2.1-3.6,2.1c-2,0-3.7-1.8-4.9-5.3
		c-1.1-2.9-1.6-5.1-1.6-6.5l0.2-1.1c0.9-3.7,1.4-6.6,1.6-8.6c0.4-4.8,0.6-10.7,0.6-17.9c-0.3-9-1.1-14.8-2.3-17.3
		c-0.1-0.7-0.2-1.2-0.2-1.4c0-1.5,0.6-2.3,1.8-2.3c2.3,0,4.9,0.8,7.9,2.5c0.3,0.1,0.6,0.2,0.8,0.4c1.5-0.1,3-0.3,4.5-0.5
		c1-4.6,1.8-9.1,2.6-13.5c-1.6,0.3-3.2,0.8-4.9,1.2c-2.2,0.6-3.5,0.9-3.9,0.9c-1.6,0-3.8-1.1-6.5-3.2c-1.7-1.5-2.8-2.8-3.1-3.9
		c-1.2,9.9-2.8,18.8-4.9,26.5c-2.9,10.2-6.4,18.7-10.5,25.6c-3.7,6.1-8.6,11.7-14.9,17c-0.6,0.8-1.4,1.2-2.3,1.2v-0.7
		c3.6-6.1,6.4-12.1,8.6-18.2c4.3-11.1,7.4-22.4,9.2-33.8c1.6-11.1,2.4-22.1,2.4-32.9c0-3.2-0.4-5.4-1.3-6.7c-0.9-1.4-1.3-2.4-1.3-3
		c0-1.4,0.4-2.1,1.3-2.1c2.4,0,6,0.6,10.8,1.8c2.9,0.5,4.7,1.3,5.5,2.6c1.7-0.6,3.4-1.3,5-2.1c6.7-3.2,12.1-6.5,16.3-10.2
		c2.7-2.2,4.6-4.7,5.7-7.5C134.1,191.2,134.5,190.2,135,190.2z M116.7,298c2.2-0.4,4.7-0.8,7.8-1.2c5.1-0.7,9.1-1.5,12.1-2.3
		c0.9-0.2,1.7-0.3,2.4-0.3c2.6,0,4.9,1.1,6.8,3.3c0.1,0.2,0.2,0.5,0.3,0.7c0.4-3.4,0.6-9.2,0.6-17.5c0-6.5-0.2-12-0.6-16.5
		c-0.4-2-1.4-3.3-2.9-4c-0.8-0.3-2.2-0.5-4.2-0.5c-0.5,0-1.2,0.1-1.9,0.2c-7.7,0.9-13.7,1.9-18.1,3c-0.8,0.4-1.4,0.5-1.9,0.5
		c-0.2,0-0.4-0.1-0.5-0.2c-0.1,1.6-0.2,3.6-0.2,5.8c0,0.2,0,0.5,0,0.7c4-0.8,7.8-1.9,11.5-3.2c0.9-0.3,1.6-0.5,2.1-0.5
		c6.5,0,9.7,2.3,9.7,7c0,0.6-0.4,1-1.1,1.2c-4.4,1.1-8.5,1.8-12.3,2.3c-3.2,0.6-5.3,0.9-6.1,0.9c-1.3,0-2.5-0.2-3.7-0.5
		c0.1,2.1,0.2,4.2,0.2,6.3c4.6-0.8,9-1.8,13.1-2.8c1-0.2,1.7-0.4,2.3-0.4c6.4,0,9.5,2.4,9.5,7.2c0,0.3-0.4,0.6-1.1,0.7
		c-4.9,0.9-9.3,1.6-13.4,1.9c-3.6,0.6-5.8,0.9-6.8,0.9c-1.2,0-2.3-0.2-3.4-0.7C116.7,292.8,116.7,295.5,116.7,298z"/>
	<path id="XMLID_1243_" class="st2" d="M217.2,204.9c2.9,0,6.3,0.5,10.2,1.6c0.5,0.2,1.1,0.5,1.6,0.7c23-1.6,48.7-5.1,77-10.5
		c2.2,0,6.4,1.7,12.6,5.1c7.5,4.8,11.3,8.2,11.3,10.2c0,0.9-0.5,2-1.6,3.3c-3.6,5.3-6.4,11.5-8.6,18.8c-1.6,8.8-4.3,19-7.9,30.7
		c-1.1,2.9-3,5.4-5.7,7.4c-2.1,1.1-3.9,1.6-5.5,1.6c-1.2,0-2.2-0.8-3.1-2.3c-0.8-1.5-1.7-2.8-2.9-3.9c-6,0-12,0.2-18,0.7
		c-0.1,18-0.4,30.6-1,37.7c-0.3,11.7-1.4,20.7-3.2,27.2c-1.8,7.2-3.7,10.9-5.5,10.9c-1.8,0-3-3.8-3.6-11.4
		c-0.8-1.6-1.2-22.7-1.5-63.3c-0.5,0-1.1,0-1.8,0c-10.3,0.9-17,1.5-20.4,1.6c-0.8,2.3-2,3.5-3.7,3.5c-2.2,0-4-1-5.7-3
		c-1.4-1.9-2.1-3.4-2.1-4.7c-1.9-5.7-3.5-15.4-4.7-29.1c-1.1-8.3-2.4-14.8-4-19.6c-1.3-4.4-2.9-7.5-4.9-9.3
		C214.8,206.2,215.6,204.9,217.2,204.9z M239.9,261.7c5.6-0.2,12.9-0.9,22-1.9h0.2c0-5.4,0-11.1,0-17.2c-1.6,0.1-3,0.2-4,0.2
		c-6.1,0-10.2-1.5-12.1-4.4c-1.3-1.9-1.9-3.2-1.9-3.9c0-0.9,0.4-1.4,1.1-1.4c6.5-0.4,12.1-0.8,17-1.2c0-1.3,0-2.6,0-3.9
		c0-5.7-0.9-10.6-2.6-14.5c-9.9,0.9-18.2,1.5-24.9,1.8L239.9,261.7z M274.2,211.9c3.9,1.6,5.8,3.3,5.8,5.1c0,1.2-0.2,2.5-0.6,3.9
		c-1.2,1.8-1.9,4.6-2.3,8.6c3-0.7,5.7-1.5,8.1-2.3c0.8-0.2,1.6-0.4,2.6-0.4c1.1,0,2.8,0.4,5,1.2c2.8,2,4.2,3.7,4.2,5.1
		c0,1.2-0.2,2.2-0.6,3.2c-0.4,1.4-1.1,2.2-2.1,2.5c-5.6,0.9-11.4,1.8-17.3,2.5c0,6.1,0,11.8,0,17.2c4.6-0.5,8.7-1,12.1-1.6
		c1.8-0.4,3.6-0.5,5.2-0.5s3,0.3,4,0.9c2.7-8.2,4.7-16.4,6-24.5c1.2-6.9,1.8-13.1,1.8-18.6c0-3.6-1.4-5.4-4-5.4
		C291.9,209.9,282.6,211,274.2,211.9z"/>
</g>
</svg>
