<?xml version="1.0" encoding="utf-8"?>
<!-- Generator: Adobe Illustrator 19.0.0, SVG Export Plug-In . SVG Version: 6.00 Build 0)  -->
<svg version="1.1" id="Layer_1" xmlns="http://www.w3.org/2000/svg" xmlns:xlink="http://www.w3.org/1999/xlink" x="0px" y="0px"
	 viewBox="0 0 371 371" style="enable-background:new 0 0 371 371;" xml:space="preserve">
<style type="text/css">
	.st0{fill:#333333;}
	.st1{fill:#2A0F0F;stroke:#FFFFFF;stroke-linecap:round;stroke-linejoin:round;stroke-miterlimit:10;}
	.st2{fill:none;stroke:#FFFFFF;stroke-linecap:round;stroke-linejoin:round;stroke-miterlimit:10;}
	.st3{fill:#F57E20;}
	.st4{fill:none;stroke:#FFFFFF;stroke-width:0.5;stroke-linecap:round;stroke-linejoin:round;stroke-miterlimit:10;}
	.st5{fill:none;stroke:#010101;stroke-width:0.5;stroke-linecap:round;stroke-linejoin:round;stroke-miterlimit:10;}
	.st6{fill:#FFFFFF;stroke:#010101;stroke-linecap:round;stroke-linejoin:round;stroke-miterlimit:10;}
	.st7{fill:#FFFFFF;}
</style>
<rect id="XMLID_1484_" class="st0" width="371" height="371"/>
<g id="XMLID_1187_">
	<g id="XMLID_1203_">
		<g id="XMLID_1207_">
			<path id="XMLID_1742_" class="st1" d="M262.2,151.9c0,50.9-39.3,102.7-71.8,102.7s-71.2-51.8-71.2-102.7
				c0-13.3,12.7-20.2,14.9-36.5c5.2-39.9,53.8-55.6,91.9-36.6C242,127.8,264,125.2,262.2,151.9z"/>
			<g id="XMLID_1700_">
				<g id="XMLID_1708_">
					<g id="XMLID_1710_">
						<path id="XMLID_1712_" class="st2" d="M133.4,158.9c5.8,1.4,9.6-10.1,24.2-7.8c11.8,1.8,12.8,14.9,12.8,14.9"/>
						<path id="XMLID_1711_" class="st3" d="M157.3,151.1c-5.2-0.7-8.7,0.5-8.7,0.5c-0.8,1.2-1.2,2.7-1.2,4.3c0,4.6,3.7,8.2,8.2,8.2
							c4.6,0,8.2-3.7,8.2-8.2c0-0.9-0.1-1.7-0.4-2.5C163.5,153.4,159.9,151.4,157.3,151.1z"/>
					</g>
					<path id="XMLID_1709_" class="st3" d="M170.8,138.7c0,0-22.6-5.5-30.7-3.3c-8.2,2.1-9.1,3.7-9.1,3.7s2.5-7.5,9.1-9.8
						c6.6-2.3,30.6-0.3,32.1,2.7C173.7,135,173.2,138.1,170.8,138.7z"/>
				</g>
				<g id="XMLID_1702_">
					<g id="XMLID_1705_">
						<path id="XMLID_1707_" class="st2" d="M248,158.9c-5.8,1.4-9.6-10.1-24.2-7.8c-11.8,1.8-12.8,14.9-12.8,14.9"/>
						<path id="XMLID_1706_" class="st3" d="M232.8,151.6c0.8,1.2,1.2,2.7,1.2,4.3c0,4.6-3.7,8.2-8.2,8.2s-8.2-3.7-8.2-8.2
							c0-0.9,0.1-1.7,0.4-2.5c0,0,2.5-1.8,6.7-2.2S232.8,151.6,232.8,151.6z"/>
					</g>
					<path id="XMLID_1704_" class="st3" d="M210.6,138.7c0,0,22.6-5.5,30.7-3.3c8.2,2.1,9.1,3.7,9.1,3.7s-2.5-7.5-9.1-9.8
						c-6.6-2.3-30.6-0.3-32.1,2.7C207.7,135,208.2,138.1,210.6,138.7z"/>
				</g>
			</g>
			<path id="XMLID_1699_" class="st4" d="M184.4,154.6c2.4,7.7,2,16.2-1.2,23.6"/>
			<g id="XMLID_1694_">
				<path id="XMLID_1698_" class="st4" d="M180.7,191.4c0-0.3,0.4-0.5,0.7-0.5c2,0,4,1.3,5,3.2"/>
				<path id="XMLID_1697_" class="st2" d="M179.6,192.8c-1.7-0.3-2.7-2.5-2.4-4.4c0.3-1.9,1.5-3.4,2.9-4.6"/>
				<path id="XMLID_1696_" class="st4" d="M200.7,191.4c0-0.3-0.4-0.5-0.7-0.5c-2,0-4,1.3-5,3.2"/>
				<path id="XMLID_1695_" class="st2" d="M201.8,192.8c1.7-0.3,2.7-2.5,2.4-4.4c-0.3-1.9-1.5-3.4-2.9-4.6"/>
			</g>
			<g id="XMLID_1225_">
				<path id="XMLID_1693_" class="st2" d="M213.7,207.1c0,0-8.1,9.9-23,9.9c-14.9,0-23.1-9.9-23.1-9.9s12.1,1.7,22.8,1.7
					C201.1,208.8,213.7,207.1,213.7,207.1z"/>
				<path id="XMLID_1227_" class="st4" d="M188.4,202.4c0.2,0.6,0.8,0.9,1.4,1c0.9,0.2,1.9,0.2,2.7-0.4"/>
				<path id="XMLID_1226_" class="st4" d="M178.3,221.8c0,0,4.5,3.7,12.3,3.7c7.8,0,12.3-4.1,12.3-4.1"/>
			</g>
			<g id="XMLID_1222_">
				<path id="XMLID_1224_" class="st2" d="M119.4,144.8c0,0-5.1-10.2-13.8-5.4c-8.6,4.8-2.8,26.9,5.6,37.1
					c2.3,2.8,6.1,11.5,12.6,10.3"/>
				<path id="XMLID_1223_" class="st4" d="M113.1,171c0.4,1,2,1,2.6,0.1c0.6-0.9,0.4-2.1,0-3.1c-0.5-1-1.2-1.8-1.7-2.8
					c-0.9-1.9-0.7-4.3,0.4-6c0.3-0.5,0.7-0.9,0.9-1.4c0.2-0.5,0.2-1,0.3-1.5c0-2.1-0.6-4.3-1.9-6c-1.1-1.4-2.7-2.6-4.4-2.6
					c-1.8,0-3.6,1.4-3.6,3.2"/>
			</g>
			<g id="XMLID_1219_">
				<path id="XMLID_1221_" class="st2" d="M262.2,144.8c0,0,5.1-10.2,13.8-5.4c8.6,4.8,2.8,26.9-5.6,37.1
					c-2.3,2.8-6.1,11.5-12.6,10.3"/>
				<path id="XMLID_1220_" class="st4" d="M268.5,171c-0.4,1-2,1-2.6,0.1c-0.6-0.9-0.4-2.1,0-3.1c0.5-1,1.2-1.8,1.7-2.8
					c0.9-1.9,0.7-4.3-0.4-6c-0.3-0.5-0.7-0.9-0.9-1.4c-0.2-0.5-0.2-1-0.3-1.5c0-2.1,0.6-4.3,1.9-6c1.1-1.4,2.7-2.6,4.4-2.6
					c1.8,0,3.6,1.4,3.6,3.2"/>
			</g>
			<path id="XMLID_1218_" class="st2" d="M111.7,138.3c-1.5-6.4-2.2-12.6-2.2-19.4c0-46.7,36.2-84.5,80.9-84.5s80.9,37.8,80.9,84.5
				c0,6.8-0.8,13.3-2.2,19.7"/>
			<g id="XMLID_1214_">
				<path id="XMLID_1217_" class="st2" d="M138.7,52.8c-1.3-3.2-0.9-6.8,0.1-10c3.3-10.5,14.3-17.9,25.2-17.3
					c3.3,0.2,6.5,1.1,9.8,1.1c5.8,0,11.2-2.6,16.7-4.1c7.5-2.1,15.5-2.3,23.1-0.6c6.4,1.4,12.5,4.2,17.3,8.7
					c4.8,4.5,8.6,11.8,8.1,20.8"/>
				<path id="XMLID_1216_" class="st4" d="M206,20.8c7.2,1,13,2.2,17.9,6.9c4.8,4.7,7.9,11.5,8.3,18.6"/>
				<path id="XMLID_1215_" class="st5" d="M144.7,48.7c-1.4-3.5-1.5-7.4-0.5-10.9c1-3.6,3.4-7.5,7.5-9.6"/>
			</g>
			<path id="XMLID_1213_" class="st4" d="M226,78.7c-2.6-8.9-10.7-15.7-18.7-18.8c-10.6-4.2-22-5.5-33.3-4.1
				c-0.5,0.1-0.9,0.1-1.4,0.2c-15.8,2.2-30,11.4-46.2,12.2"/>
			<path id="XMLID_1212_" class="st4" d="M226,78.7c2.5,5.9,8.9,15.4,13.1,19.2c7,6.4,17,9,24,15.4c4.2,3.9,6.6,9,7.7,14.5"/>
			<path id="XMLID_1211_" class="st4" d="M194.7,70.8c-19.5-1.6-39.5,2.6-56.4,12.4c-6.6,3.9-12.9,8.6-20,11.5c-2,0.8-4,1.5-6,2"/>
			<path id="XMLID_1210_" class="st4" d="M110.3,130.7c1.5-0.8,2.9-1.9,4.2-3c9.2-7.8,14.9-18.5,21.5-28.3
				c4.4-6.5,11.3-13.2,18.7-17.7"/>
			<path id="XMLID_1209_" class="st4" d="M226.5,78c1.8-1.5,2.5-4,2.7-6.3c0.4-4.1-0.5-8.3-2.1-12.1c-3.6-8.8-10.8-16-19.2-20.5
				c-3.2-1.8-6.6-3.2-10.1-4.3"/>
			<path id="XMLID_1208_" class="st4" d="M226.8,78.3c4.5,2.2,9.1,4.5,14.1,5.4c5,0.9,10.4,0.5,14.5-2.4c1.4-0.9,2.6-2.2,3.3-3.7
				c0.4-0.9,0.7-1.9,0.8-2.9"/>
		</g>
		<g id="XMLID_1204_">
			<path id="XMLID_1206_" class="st2" d="M156.2,238c0.7,7,1.2,14.7-0.1,22.7c-5.4,34.9-42.6,30.5-66.3,37.4
				c-21.3,6.2-33.5,16.3-36.8,46.4"/>
			<path id="XMLID_1205_" class="st2" d="M225.5,237.2c-0.7,7.2-1.3,15.2,0,23.5c5.4,34.9,42.6,30.5,66.3,37.4
				c21.3,6.2,33.5,16.3,36.8,46.4"/>
		</g>
	</g>
	<g id="XMLID_1191_">
		<polygon id="XMLID_1202_" class="st6" points="269,249.2 264.2,238 254.2,234.4 264.3,230 269,219.6 273.8,229.7 283.8,234.4 
			273.7,238.1 		"/>
		<polygon id="XMLID_1199_" class="st7" points="73.7,181.2 68.8,170 58.9,166.4 69,162 73.7,151.6 78.5,161.7 88.5,166.4 
			78.3,170.1 		"/>
		<polygon id="XMLID_1198_" class="st3" points="94.1,241.9 85.6,222.3 68.2,216 85.9,208.3 94.1,190.1 102.5,207.6 120,216 
			102.3,222.4 		"/>
		<polygon id="XMLID_1197_" class="st3" points="306.1,225.5 297.6,205.8 280.2,199.6 297.9,191.9 306.1,173.7 314.5,191.2 
			332,199.6 314.3,205.9 		"/>
		<polygon id="XMLID_1196_" class="st3" points="68.2,254.5 65.2,247.5 58.9,245.2 65.2,242.5 68.2,235.9 71.2,242.2 77.5,245.2 
			71.1,247.5 		"/>
		<polygon id="XMLID_1195_" class="st7" points="302.8,160.4 299.8,153.4 293.5,151.1 299.9,148.3 302.8,141.8 305.8,148.1 
			312.1,151.1 305.7,153.4 		"/>
		<polygon id="XMLID_1192_" class="st7" points="312.1,255.8 309.1,248.8 302.8,246.5 309.2,243.7 312.1,237.2 315.2,243.5 
			321.4,246.5 315.1,248.8 		"/>
	</g>
</g>
</svg>
