<?xml version="1.0" encoding="utf-8"?>
<!-- Generator: Adobe Illustrator 19.0.0, SVG Export Plug-In . SVG Version: 6.00 Build 0)  -->
<svg version="1.1" id="Layer_1" xmlns="http://www.w3.org/2000/svg" xmlns:xlink="http://www.w3.org/1999/xlink" x="0px" y="0px"
	 viewBox="0 0 371 371" style="enable-background:new 0 0 371 371;" xml:space="preserve">
<style type="text/css">
	.st0{fill:none;stroke:#F57E20;stroke-width:5;stroke-miterlimit:10;}
	.st1{fill:#333333;}
	.st2{opacity:0.57;}
	.st3{fill:#FFFFFF;stroke:#FFFFFF;stroke-miterlimit:10;}
	.st4{opacity:0.84;}
	.st5{fill:#F57E20;}
</style>
<circle id="XMLID_2146_" class="st0" cx="183.3" cy="202.1" r="123.7"/>
<rect id="XMLID_1429_" class="st1" width="371" height="371"/>
<g id="XMLID_1332_" class="st2">
	<path id="XMLID_1333_" class="st3" d="M51.4,265.4H41.2V113.8l-7.1,7.7l-1.9-2l9-9.7h10.2V265.4z"/>
	<path id="XMLID_1335_" class="st3" d="M158.3,245.5c-0.5,4.3-1.7,8.1-3.5,11.4c-4.4,7.6-11.7,11.5-22,11.6
		c-9.6,0.2-17.6-1.2-24-4.1c-6.4-2.9-13.8-4.3-22.3-4.3c-9.6,0-19,2.8-28.1,8.4c-0.2-2-0.2-4.6-0.2-7.7c0-15.7,2.6-31.2,7.8-46.5
		c8-24.2,21.6-44.4,40.8-60.6c4.2-3.4,8.4-6.8,12.5-10.2c3.5-3.6,5.2-7.8,5.2-12.5c0-6.5-1.4-11.6-4.2-15.3
		c-2.8-3.7-6.2-5.6-10.2-5.6c-5.8,0-10.9,2.3-15.1,7c-4.2,4.7-6.4,10.3-6.4,16.7c0,3.9,0.9,7.6,2.6,11l-1.4,0.5
		c-1.7-3.4-2.6-7.3-2.6-11.8c0-7,2.3-13,6.8-17.9c4.6-4.9,10.1-7.4,16.5-7.4c6.5,0,11.9,2.5,16.3,7.4c4.4,4.9,6.8,10.9,7.1,17.9
		c0.3,6.3-1.9,12.3-6.6,17.9c-5.5,5.3-10.9,10.5-16.3,15.6c-28.8,27.8-45,59.2-48.6,94.3c7.9-8.5,15.9-12.8,24.1-12.8
		c5,0,9.7,0.9,13.9,2.6c0.5,0.3,4.2,2.3,11.1,5.9c7.7,4.1,14.7,6.1,21,5.9c13.8-0.3,21.7-6.1,23.6-17.4H158.3z"/>
</g>
<g id="XMLID_1329_" class="st4">
	<path id="XMLID_1330_" class="st3" d="M308.1,246.2c0,14.6-4.6,27-13.8,37.4c-9.2,10.4-20.2,15.6-33.1,15.6
		c-13,0-24.1-5.2-33.3-15.6c-9.2-10.4-13.8-22.8-13.8-37.4c0-7.5,1.3-14.6,3.8-21.2l1.5,0.9c-2.4,6.6-3.6,13.4-3.6,20.3
		c0,14.1,4.4,26.2,13.3,36.1s19.5,14.9,32,14.9c10.7,0,19.8-5,27.3-14.9s11.2-22,11.2-36.1c0-14.1-3.7-26-11.1-35.7
		c-7.4-9.7-16.4-14.5-27.2-14.5c-7,0-12,0.7-15.1,2.2l26.6-44.5h-37.3v-1.9h48.2l-23.7,41.5c13.8,0,25.2,5.1,34.3,15.3
		C303.6,218.9,308.1,231.4,308.1,246.2z"/>
</g>
<g id="XMLID_1324_">
	<path id="XMLID_1325_" class="st5" d="M268.2,223.7c0,23.5-8,43.8-24.1,60.8c-16.1,17-35.3,25.5-57.8,25.5
		c-22.5,0-41.7-8.4-57.8-25.3c-16.1-16.8-24.1-37.2-24.1-61c0-17.9,4.9-34.2,14.6-48.9c9.8-14.7,22.4-25.3,38-31.7
		c6.4-2.7,11.4-4.3,14.8-4.8c-15.6-8.3-23-21.3-22.2-38.9c0.5-11,4.2-20.3,11.1-28.1c6.9-7.8,15.4-11.6,25.6-11.6
		c10.1,0,18.8,3.9,25.9,11.6C219.4,79,223,88.3,223,99.3c0,14.7-5.3,25.3-15.9,31.7c17.8,5.9,32.4,17.6,43.9,35.1
		C262.4,183.6,268.2,202.8,268.2,223.7z M251.5,223.7c0-22.2-5.7-40.6-17.2-55.2c-11.5-14.6-26.2-22.9-44.3-25.1
		c-4.7-0.5-9-1.6-13-3.2c-4,1.1-10.1,3.2-18.5,6.4c-15.1,5.9-27.4,15.8-36.9,29.9c-9.5,14-14.3,29.8-14.3,47.1
		c0,22.5,8,41.9,23.9,58.2c15.9,16.3,34.3,24.5,55,24.5c17.8,0,33.1-8.1,45.9-24.3C245.1,265.9,251.5,246.4,251.5,223.7z M220,99.3
		c0-10.2-3.3-18.9-9.8-26.1c-6.5-7.2-14.4-10.8-23.5-10.8c-6.2,0-11.4,2.9-15.7,8.8c-4.3,5.9-6.5,13.9-6.5,24.1
		c0,19.8,9,30.6,27,32.5c2.5,0.3,6.2,0.9,11.1,2C214.2,123.9,220,113.8,220,99.3z"/>
</g>
</svg>
