<?xml version="1.0" encoding="utf-8"?>
<!-- Generator: Adobe Illustrator 19.0.0, SVG Export Plug-In . SVG Version: 6.00 Build 0)  -->
<svg version="1.1" id="Layer_1" xmlns="http://www.w3.org/2000/svg" xmlns:xlink="http://www.w3.org/1999/xlink" x="0px" y="0px"
	 viewBox="0 0 371 371" style="enable-background:new 0 0 371 371;" xml:space="preserve">
<style type="text/css">
	.st0{fill:#333333;}
	.st1{fill:#FFFFFF;}
	.st2{fill:#F57E20;}
</style>
<rect id="XMLID_1482_" class="st0" width="371" height="371"/>
<circle id="XMLID_1391_" class="st1" cx="185.5" cy="198.5" r="78.5"/>
<g id="XMLID_1281_">
	<path id="XMLID_1282_" class="st2" d="M77.7,25.6c3.3,0,6.3,0.8,8.9,2.3c4.4,1.9,6.6,3.7,6.6,5.4l-0.5,1.2
		c-0.4,1.3-0.7,2.9-0.8,4.7c-0.2,2-0.4,4-0.6,6c2-0.7,3.9-1.5,5.5-2.5c2.4-1.2,4-1.8,5-1.8c6,0.4,9.1,2.7,9.1,7c0,1.6-1,2.6-2.9,2.8
		c-2.3,0.2-5.2,0.7-8.9,1.4c-2.3,0.5-4.4,0.7-6.5,0.7c-0.8,0-1.5,0-2.1,0c-0.1,0.8-0.2,1.6-0.3,2.5c-0.4,4.6-0.9,9.2-1.5,14
		c0.3-0.1,0.6-0.2,1-0.4c5.9-2.2,9.8-3.3,11.5-3.3c2.9,0,4.4,0.7,4.4,2.1c0,1.2-0.6,1.9-1.9,2.3c-6,2.8-13,5.5-20.9,8.1
		c-12.2,4.4-22.5,9.1-30.9,14c-0.9,0.5-1.5,0.7-1.9,0.7c-1.5,0-4.2-2.1-7.9-6.3c-2.5-2.9-3.7-5.2-3.7-6.8c0-1.5,0.5-2.3,1.5-2.3
		c0.8,0,2,0.5,3.7,1.6c1.4,0,5.7-0.7,12.9-2.1c0.5,0,1.1-0.1,1.6-0.2c-1.1-8.3-1.6-13.7-1.6-16.1c0-2.8-0.4-6.1-1.3-10
		c-0.3-1.1-0.5-1.9-0.5-2.6c0-0.9,1-1.4,3.1-1.4c3.3,0,6.4,0.8,9.1,2.3c4.3,1.9,6.5,3.7,6.5,5.4l-0.6,0.7c-0.3,0.9-0.6,2-0.8,3.2
		c-0.8,3-1.4,6.5-1.9,10.3c-0.4,2.1-0.8,4.1-1.1,6.1c3.5-0.7,6.8-1.5,10.2-2.5c-1.5-17.2-2.3-28-2.3-32.6c0-2.8-0.5-6.2-1.5-10.2
		c-0.3-0.9-0.5-1.7-0.5-2.3C74.6,26.1,75.7,25.6,77.7,25.6z M76.6,142.2c0.4,0,0.8,0.5,1.1,1.6c1.3,3.2,1.9,5.6,1.9,7.4
		c0,3.6-1,7.4-2.9,11.4c-1.1,2.7-2.6,4.8-4.5,6.5c-1.2,1.3-2.3,1.9-3.4,1.9c-2.4,0-4.2-1-5.5-3c-0.6-1.5-1-3.1-1-4.7
		c0-1.4,0.3-2.9,1-4.6c6.6-7.4,10.1-12.1,10.7-14.4C74.4,142.9,75.3,142.2,76.6,142.2z M90.8,79.1c3.5,0,7.2,1.5,11.2,4.4
		c4.2,2.1,6.3,4.4,6.3,6.8c0,0.2-0.3,0.5-1,0.9c-3.2,1.5-5.7,2.9-7.4,4.2c-2.9,2.3-5.3,4.4-7.1,6.3c2.6,1.4,5.1,2.9,7.4,4.4
		c0.2,0.1,0.4,0.2,0.6,0.4c5.3-4.3,9.3-8.1,12.1-11.2c1.3-1.5,2.1-3.2,2.4-4.9c0-2.9,1.1-4.4,3.2-4.4c1.2,0,3.7,1.5,7.6,4.4
		c3.6,1.9,5.3,4,5.3,6.3c0,0.2-0.8,0.7-2.3,1.4c-5.4,2.8-11.8,6.7-19.3,11.6c-5.9,4.1-11.9,8.6-17.8,13.7c11-1.6,21.5-3.2,31.4-4.7
		c-1.2-2.3-2.6-5-4.2-8.1c-0.5-0.9-0.8-1.6-0.8-2.1c0.1-0.5,0.5-0.7,1.1-0.7c1.6,0,3.4,0.4,5.3,1.2c4.9,1.5,8.6,3.3,11.2,5.4
		c2,2.1,3.1,5,3.1,8.8c0,1.5-0.7,3-2.1,4.4c-1.5,1.3-3,1.9-4.4,1.9c-1.2,0-2.4-0.8-3.6-2.3c-0.9-0.8-1.7-1.9-2.6-3.3
		c-0.4,0-0.8,0.1-1,0.2c-6.6,0.9-12.6,2-18.1,3.3c1.5,0.7,3,1.6,4.5,2.6c3.5,1.9,5.2,3.9,5.2,6c-1.3,2.3-1.9,4.8-1.9,7.5l2.6,17.7
		c0,3.4-1.8,7.6-5.3,12.6c-3,4.2-5.4,6.3-7.1,6.3c-1.4,0-2.4-0.6-3.1-1.9c-3.5-3.5-9.1-8.5-17-14.9c0-0.9,0.4-1.4,1.3-1.4
		c5.3,0.9,9.6,1.4,12.9,1.4c0.8,0,1.3-0.7,1.8-2.1c0.2-1.1,0.3-7.8,0.3-20.3c0-3.7-0.5-7.6-1.6-11.6c-0.9,0.2-1.7,0.5-2.4,0.9
		c-8.1,2.5-13.6,4.6-16.7,6.5c-2.1,0.8-3.3,1.2-3.9,1.2c-1.3,0-3-1.5-5-4.6c-1.4-2.2-2.1-3.9-2.1-5.1c0-0.9,1.1-1.9,3.4-2.8
		c1.8-0.5,3.3-1.1,4.4-1.8c2.4-1.3,7.4-5,15.2-11c1.2-0.8,2.2-1.5,2.9-2.1c-0.2,0-0.4-0.1-0.5-0.2c-4-0.7-7.1-1.1-9.4-1.1
		c-2.2,0-3.7,0.1-4.7,0.3c-1.6,0.7-2.6,1.1-3.1,1.1c-2.9,0-4.4-1.6-4.4-4.9c0-1.4,0.1-2.7,0.3-3.9c0.3-2.7,1.3-4.2,2.9-4.6
		c3-0.7,5.3-1.6,7-2.6c1.3-0.9,2.6-2.5,4-4.6c0.9-0.9,1.3-2,1.3-3.3c0-2.5-0.4-4.3-1.3-5.6C88.2,79.8,89.1,79.1,90.8,79.1z
		 M114.6,17.2c2.8,0,5.9,1,9.2,3c3.9,1.8,5.8,3.6,5.8,5.4c0,1.4-0.3,2.8-0.8,4.2c-1.5,4.9-2.4,9.2-2.8,13c-0.3,2-0.5,4.1-0.6,6.5
		c2.9-2,5.4-4,7.6-6.1c2.8-2.3,5.7-5.8,8.7-10.3c0.9-1.1,1.8-1.6,2.8-1.6c1.6,0,4.4,1.7,8.4,5.1c3.9,3,5.8,5.8,5.8,8.4
		c0,0.7-1.4,1.3-4,1.8c-4.5,0.7-9.6,1.8-15.2,3.3c-6.5,1.6-11.3,2.7-14.4,3.3c0,1.5,0,3.2,0,4.9c0,2.5,0.4,4.6,1.1,6.5
		c1,1.9,2.5,3.3,4.7,4.4c2.7,1.6,7.4,2.5,14.2,2.5c5.8,0,10.1-1.2,12.9-3.7c2.8-2.1,5.6-7.1,8.4-14.9c0.1-0.2,0.5-0.4,1.3-0.4
		c0.2,0,0.4,0.1,0.5,0.4c2,9.2,4.3,15.5,6.6,18.8c0.3,0.1,0.5,0.5,0.5,1.2c0,1.6-0.5,3-1.6,4.2c-2.8,3.2-6.7,5.4-11.7,6.7
		c-4.6,1.5-9.5,2.3-14.6,2.3c-8.2,0-15.4-1.3-21.7-3.9c-4.3-1.9-7.5-4.4-9.5-7.7c-1.6-2.6-2.4-7.3-2.4-14.2V26.5
		c0-2.2-0.2-3.8-0.6-4.7c-0.4-0.6-0.6-1.6-0.6-3.2C112.7,17.7,113.3,17.2,114.6,17.2z M126.3,138.7c1,0,2.6,0.2,4.9,0.5
		c3.9,1.4,7.9,2.9,12,4.6c5.2,2.7,8.6,5.1,10.2,7.4c1.4,2,2.1,4.1,2.1,6.5c0,1.9-0.5,4-1.6,6.3c-1.2,1.8-2.8,2.6-4.9,2.6
		c-2.4,0-4-0.9-5-2.6c-1.6-1.3-3.9-4-6.8-8.1c-4.2-6.8-7.1-10.9-8.7-12.4c-1.7-1.9-2.6-3.2-2.6-4
		C125.8,138.9,125.9,138.7,126.3,138.7z"/>
	<path id="XMLID_1288_" class="st2" d="M224.6,68.4c3.2,0,7.1,1.3,11.7,3.9c3.1,1.1,4.7,2.6,4.7,4.6c0,0.5-0.3,0.8-1,1.1
		c-0.4,0.9-1.1,2.3-1.9,4c-3.7,7.5-7.8,14.4-12.3,20.7c5.4,3.6,8.1,6.5,8.1,8.8c0,0.8-0.4,2.2-1.3,4.2c-1,2.9-1.5,4.6-1.5,4.9v43.5
		c0,2.5-0.7,5-2.1,7.7c-1.6,3.7-3.1,5.6-4.4,5.6c-2.5,0-4.9-3.4-7.3-10.3c-0.8-1.8-1.1-3.2-1.1-4.4c0-2.7,1.3-10.2,3.9-22.4
		c1-4.2,1.5-11.7,1.5-22.4c0-3-0.3-5.8-0.8-8.2c-3.7,4.7-7.5,8.6-11.5,11.9c-4.5,3.9-8.9,6.8-13.1,8.8c-1.7,1.1-2.8,1.6-3.1,1.6
		v-0.9c5.8-6.9,11-13.8,15.5-20.9c3.1-4.7,6-9.9,8.7-15.6c2.6-5,4.5-10,5.8-15.1c0.5-2,0.8-3.4,0.8-4.4c-0.9-1.6-1.3-3.3-1.3-5.1
		C222.7,68.8,223.4,68.4,224.6,68.4z M229.8,29.3c2.9,0,6.6,1.2,11,3.5c3.6,2.1,5.3,4.1,5.3,6.1c0,0.6-0.6,1.4-1.8,2.5
		c-1,0.4-1.6,0.9-1.9,1.6c-5,7.1-9.5,12.9-13.8,17.3c-5.6,5.1-10.7,9-15.4,11.6c-2.5,1.5-4.1,2.3-4.9,2.3c-0.3,0-0.5-0.5-0.5-1.4
		c5.2-6.8,9.4-12.9,12.8-18.4c2.5-4.6,4.5-9.2,6-13.8c0.9-2.7,1.3-4.6,1.3-5.6v-4.4C228,29.7,228.6,29.3,229.8,29.3z M276.6,89.6
		c0.9,0,2.4,0.4,4.5,1.1c2.5,1.6,3.7,3.2,3.7,4.6c0,1.1-0.2,2-0.5,2.8c-0.4,1.1-1.1,1.7-1.9,1.9c-3,1.3-6.1,2.4-9.2,3.3
		c1.8,1.1,2.8,2.3,2.8,3.7l0.5,33.6c4.9-1.6,9.7-3,14.4-4.2c0.8,0,1.1,0.5,1.1,1.4c0,0.9-1,2.4-3.1,4.4
		c-9.9,6.7-15.4,10.6-16.5,11.7c-2.4,2.5-4,3.7-4.9,3.7c-1.8,0-3.4-1.5-4.7-4.4c-1.6-2-2.4-3.6-2.4-4.7c0-1.5,0.2-2.7,0.6-3.7
		c0.5-0.6,1.1-1.4,1.6-2.5c0.8-0.8,1.1-2.3,1.1-4.6c0.6-5.8,1-11.9,1-18.2c0-7.2-0.5-11.8-1.5-13.7c-0.8,0.1-1.5,0.2-2.1,0.4
		c-0.5,0.2-1.1,0.4-1.6,0.5c1.4,0.7,2.1,1.8,2.1,3.2c-0.6,1.1-1,2-1,3c-0.4,9.8-1.5,17.2-3.1,22.1c-1.6,5.8-3.8,10.6-6.5,14.2
		c-2.7,3-6.2,5.7-10.5,8.1c-2.6,1.1-4.2,1.6-4.9,1.6c3.5-5,6-9.7,7.8-14c1.7-4,2.9-8.8,3.6-14.5c0.6-4.8,1-10.2,1-16.3
		c0-1.5-0.5-3.4-1.5-5.8c-3.8-0.5-6.4-1.9-7.8-4.2c-1.3-1.8-1.9-3.1-1.9-4c0-0.5,0.2-0.7,0.6-0.7c10.4-0.7,18.5-1.9,24.4-3.7
		c4.5-1.6,8.6-3.3,12.1-5.1C274.8,89.9,275.6,89.6,276.6,89.6z M261.7,30.5c2.6,0,5.2,0.7,7.8,2.1c3.9,1.6,5.8,3.1,5.8,4.4
		c-0.1,0.6-0.2,1.3-0.3,2.1c-1.2,3.2-2.3,13.1-3.4,29.8c1.9-0.4,3.9-0.7,5.8-1.1c0.5,0,1,0,1.5,0c0.3-0.7,0.5-1.3,0.6-1.9
		c0.5-2.2,0.8-6.1,0.8-11.6c0-2.7-0.6-4.7-1.8-6c-0.4-0.5-0.6-1.3-0.6-2.5c0-0.5,0.6-0.7,1.8-0.7c2.6,0,5.8,1,9.7,3
		c2.6,1.1,3.9,2.2,3.9,3.5c0,0.5-0.2,1.1-0.5,1.9c-0.9,0.9-1.3,2.2-1.3,3.7c-1.7,9.3-3,14.8-3.7,16.5c-0.8,1.4-1.5,2.4-2.3,3
		c-1.4,1.5-2.6,2.3-3.7,2.3c-1.2,0-2.3-0.9-3.2-2.8c-0.2-0.2-0.4-0.5-0.6-0.9c-0.2,0-0.4,0-0.6,0c-5.2,0.9-10.5,2.5-16,4.6
		c-4.1,1.4-8,3.7-11.8,6.8c-1.2,0-2.9-1.2-5.2-3.7c-1.3-2-1.9-3.6-1.9-4.9c0-1.2,0.2-2.1,0.6-2.8c1-1.3,1.7-3.9,2.1-7.9
		c0.2-1.8,0.3-3.6,0.3-5.4c0-1.6-0.5-3.4-1.5-5.4c-0.3-0.6-0.5-1.1-0.5-1.6c0-1.4,0.4-2.1,1.3-2.1c1.8,0,4.2,0.8,7.1,2.5
		c3.1,1.4,4.7,2.7,4.7,4c0,1.2-0.4,3.7-1.3,7.5c-0.5,2.2-1.1,4.3-1.6,6.3c2.6-0.7,5.3-1.5,8.1-2.3c0.5-18.2,0.6-28.9,0.2-31.9
		c-0.6-1.6-1.2-2.9-1.8-3.9c-0.8-1.2-1.1-2-1.1-2.6C259,31.2,259.9,30.5,261.7,30.5z M303.8,31.2c2.5,0,5.8,1.2,9.9,3.5
		c3.3,2,5,3.9,5,5.6c0,1.4-0.5,2.9-1.6,4.6c-1,0.8-1.6,1.9-1.8,3.3c-4.9,14.3-9.2,25.8-13.1,34.7c-0.8,1.1-1.3,2-1.8,3
		c5.1-2.2,10.4-5,16-8.2c1.7-1.1,3.3-1.6,4.7-1.6c2.4,0,5.1,1,8.1,3c2.9,1.9,4.4,3.9,4.4,6.1c0,1.8-1.3,2.7-3.9,3
		c-2.1,0.2-4.3,0.6-6.6,1.1c-1.8,0.5-3.8,1-5.8,1.6c0.5,0.4,1.1,0.7,1.8,1.1c3.2,1.1,4.9,2.9,4.9,5.4c0,0.5-0.3,1.3-0.8,2.6
		c-1.3,2.3-2.2,4.8-2.8,7.5c-1.2,12.3-3.2,21.5-6,27.7c1,1.1,1.9,2,2.8,3c2.9,3.3,6.7,6.4,11.3,9.3c3.5,2.5,8.9,5.3,16.3,8.6
		c1.2,0.2,1.8,1,1.8,2.3c0,1.3-0.8,2-2.3,2.1c-4.4,0.9-10.6,1.4-18.4,1.4c-4.5,0-7.8-1.7-9.7-5.1c-2.4-3.2-4.9-7.2-7.4-12.3
		c-3.7,4.6-8.2,8.3-13.6,11.2c-5.8,3-11.4,4.6-16.7,4.6c-1.2,0-1.8-0.2-1.8-0.7c8.4-4.4,15.5-10.2,21.4-17.2c2-2.5,3.8-5.1,5.3-7.9
		c-3-6-6-12.4-8.9-19.3c-1.3-2.6-3.7-5.4-7.3-8.6c-2.2,2.7-3.5,4-4,4c-0.4,0-0.6-0.2-0.6-0.7c5.2-12.8,9.5-24.8,12.9-35.7
		c2.4-8.9,4.4-17.8,6-26.8c0.8-5.4,1.1-9.1,1.1-11l-0.6-3.7C301.8,31.7,302.5,31.2,303.8,31.2z M289.7,103.6c0.1,0,0.3,0,0.5,0
		c4.6,0,7.4,0.9,8.4,2.6c2.8,7.2,5.4,12.9,7.9,16.8c0.1,0.4,0.3,0.6,0.5,0.9c0.1-0.8,0.2-1.5,0.3-2.1c1.9-7.1,2.9-15.3,2.9-24.5
		c0-1.9-0.1-3.4-0.3-4.6c-2.4,0.7-4.7,1.3-7.1,1.9c-0.4,0.4-0.8,0.5-1,0.5c-1.8-0.5-3.6-1.2-5.2-2.3
		C294.2,97.1,291.9,100.7,289.7,103.6z"/>
	<path id="XMLID_1297_" class="st2" d="M142.6,281.9c-6.6,0-12.7,0.1-18.4,0.2c-0.2,12-0.5,20.9-0.8,26.6c-0.4,14.6-1.5,26-3.2,34.2
		c-1.8,8.9-3.7,13.3-5.5,13.3c-1.8,0-3-4.7-3.6-14c-0.6-1.8-1.1-21.6-1.3-59.6c-7.2,0.5-13.6,1.1-19.3,1.8
		c-11.7,1.2-22.9,3.2-33.7,6c-2.4,0.9-4.7,1.4-7,1.4c-2.9,0-6.1-1.6-9.7-4.9c-3-3.2-4.5-5.3-4.5-6.5c0-0.9,0.4-1.4,1.3-1.4
		c8.4,0,26.5-1.6,54.4-4.9c6.6-0.9,12.7-1.8,18.4-2.5c-0.1-16.5-0.2-35.7-0.2-57.7c0-7.4-1.4-13.3-4-17.7c0-0.9,0.9-1.4,2.8-1.4
		c3.6,0,7.1,0.5,10.5,1.6c5.8,2.2,8.7,4.3,8.7,6.1c0,1.2-0.2,2.5-0.6,4c-1.6,2.3-2.4,6.8-2.4,13.5c0,19.4-0.1,35.9-0.2,49.4
		c11.4-1.6,21.1-3.3,29.1-4.9c1.3-0.2,2.4-0.4,3.4-0.4c3.5,0,7.5,1.3,12.3,4c4.2,3.4,6.3,6.7,6.3,10c0,4.3-1.5,6.5-4.4,6.5
		c-3.2,0-8.7-0.5-16.5-1.4C149.8,282.4,145.8,281.9,142.6,281.9z M70.6,242.5c2,0,4.4,0.4,7,1.1c6.6,1.3,11.5,2.9,14.9,4.7
		c2.8,1.9,4.2,4.4,4.2,7.5c0,1.9-0.8,3.7-2.4,5.4c-1.8,1.5-3.6,2.3-5.3,2.3c-1.7,0-3.3-0.7-4.9-2.1c-3.3-2.6-7.8-7.8-13.4-15.6
		c-0.8-0.8-1.1-1.4-1.1-1.8C69.6,243,70,242.5,70.6,242.5z M75.9,213.9c1.7,0,3.9,0.3,6.6,0.9c6,1.4,10.7,3,13.9,4.9
		c2.6,2,3.9,4.7,3.9,8.1c0,1.5-0.6,3-1.9,4.4c-1.5,1.3-3,1.9-4.5,1.9c-1.6,0-3.2-0.7-4.7-2.1c-3.3-2.5-7.8-7.7-13.4-15.6
		c-0.8-0.8-1.1-1.4-1.1-1.8C74.8,214.2,75.2,213.9,75.9,213.9z"/>
	<path id="XMLID_1301_" class="st2" d="M211.1,220.1c2.5,0,5.3,0.5,8.6,1.6c0.8,0.4,1.4,0.6,1.9,0.9c4.6-0.6,9.4-1.5,14.4-2.6
		c-0.2-4.2-0.6-8.3-1.3-12.3c-0.1-3-1.4-5.9-3.9-8.6c-0.2-0.7-0.3-1.2-0.3-1.4c0-1.4,1.3-2.1,4-2.1c3.1,0,6.5,0.8,10.2,2.3
		c3.9,2.1,5.8,3.9,5.8,5.4c0,0.5-0.1,1.1-0.3,1.9c-0.3,2.2-0.6,6.1-0.8,11.7c3.5-0.9,6.8-1.9,10.2-3c1.5,0,4.4,1.1,8.6,3.3
		c5.2,3.3,7.8,5.7,7.8,7.2c0,0.4-0.3,0.8-0.8,1.4c-0.4,0.5-0.8,0.9-1,1.4c1.3-0.1,2.5-0.2,3.7-0.2c2,0,4.2,0.8,6.5,2.5
		c2.2,1.3,3.2,3,3.2,5.3c0,2.9-0.7,4.4-2.1,4.4c-5.5,0-10.9,0.1-16.2,0.4c-0.8,3-1.8,6.4-3.2,10c-0.8,1.9-2.1,3.4-3.9,4.7
		c-1.4,0.6-2.7,0.9-3.9,0.9c-0.4,0-0.8-0.1-1.1-0.4c-2.7,0-5.4,0.2-8.3,0.5v7.2c4-0.9,8-1.9,12.1-3c1.4,0,4.2,1.1,8.4,3.3
		c5.2,3.3,7.8,5.7,7.8,7.2c0,0.1-0.3,0.3-0.8,0.5c-1.6,1.1-3,2.3-4,3.9c-0.8,1.8-1.9,3.7-3.6,6c-0.8,1.9-2.1,3.4-4,4.7
		c-1.5,0.6-2.8,0.9-3.7,0.9c-0.8,0-1.5-0.5-2.1-1.4c0-0.1-0.1-0.2-0.2-0.4c-5.8,0.2-11.7,0.9-17.5,1.9c1.8,1.1,2.8,2.2,2.8,3.5
		c0,0.6-0.1,1.1-0.3,1.6c-0.9,2.7-1.8,5.4-2.8,8.1c2.6-0.4,5.3-0.7,8.3-1.1c-0.1-1.4-0.3-2.5-0.6-3.2c-0.3-1.2-0.5-2.3-0.5-3.3
		c0-0.9,0.6-1.4,1.8-1.4c3.5,0,6.8,0.7,10,2.1c2.7,0.7,4.1,1.9,4.2,3.7c1.9-0.1,3.7-0.2,5.3-0.2c4.7,0.2,7.1,2.8,7.1,7.7
		c0,0.9-2.5,1.5-7.6,1.8c-2.9,0.1-5.9,0.3-9.1,0.5c-2,6-4.6,11.1-7.8,15.4c1.8,0.7,3.3,1.3,4.5,1.9c3.7,2.1,6.8,4.6,9.4,7.5
		c2.3,3.2,3.4,6.2,3.4,9.1c0,3.4-1.6,5.1-4.7,5.1c-1.5,0-5-2.6-10.5-7.9c-2.6-2.5-5.7-4.8-9.4-7.2c-2.7,2.7-5.7,4.8-8.9,6.5
		c-4.3,2.1-9.2,4-14.7,5.6c-4.6,1.1-9.9,1.6-15.9,1.6c-0.4,0-0.6-0.2-0.6-0.7c5.6-1.9,10-3.6,13.3-5.3c6.6-2.9,12-6.2,16.2-10
		c0.9-0.7,1.7-1.4,2.6-2.1c-3.9-2.1-7.6-3.5-11-4.2c-1.2-0.2-1.8-1-1.8-2.3c0-1.3,0.5-2.4,1.5-3.3c0.6-0.8,1.3-2.5,2.1-5.1
		c-6,1.2-12.7,2.6-20.1,4.2l-2.8,0.5c-0.9,0-2.9-1.1-6-3.2c-3.3-2.9-5-5.5-5-7.9c0-0.5,0.4-0.7,1.1-0.7c6.3-0.1,12.8-0.5,19.6-1.2
		c4.2-0.4,9.3-0.9,15.4-1.8c1.3-4.8,1.9-8.7,1.9-11.7c0-0.2,0-0.5,0-0.7c-1.8,0.3-3.2,0.6-4,0.7c-0.6,1.4-1.7,2.1-3.1,2.1
		c-1.7,0-3.2-0.9-4.5-2.8c-1.3-1.8-1.9-3.2-1.9-4.2c-1.1-1.5-2-4.1-2.8-7.7c-0.6-2.3-1.5-4.1-2.6-5.4c-0.8-1.1-1.8-1.8-3.1-2.3
		c0-2.5,0.9-3.7,2.8-3.7c2.3,0,5.1,0.5,8.4,1.6c0.6,0.2,1.2,0.5,1.6,0.9c4.5-0.6,9.3-1.4,14.2-2.5l-0.2-7.5
		c-3.3,0.8-5.6,1.3-6.8,1.4c-0.6,0.9-1.5,1.4-2.4,1.4c-1.8,0-3.4-1-4.7-3c-1.2-1.6-1.8-3-1.8-4c-1-1.9-1.9-4.4-2.8-7.5
		c-1.7,0.5-3.4,0.9-5,1.2c-2.9,0.8-4.6,1.2-5.2,1.2c-1.5,0-3.4-0.8-5.7-2.5c-1.8-1.5-2.8-2.8-2.8-3.9c0-0.9,0.2-1.4,0.6-1.4
		c5.7-0.7,11.2-1.5,16.5-2.3c-1-4.1-2.3-7.3-3.9-9.6c-1.1-2.3-2.5-3.9-4.4-4.7C208.5,221.3,209.3,220.1,211.1,220.1z M227.6,236.5
		c3.1-0.5,6.1-1,8.9-1.6l-0.2-5.4c0-1.2,0-2.3,0-3.3c-4.2,0.7-7.8,1.2-10.7,1.4L227.6,236.5z M228.2,281.6c2.4-0.3,5.3-1,8.7-1.9
		l-0.2-8.6c-3.9,0.6-7.2,1-10,1.2L228.2,281.6z M230.8,251.2c1.7-0.2,3.7-0.6,5.8-1.2l-0.2-7.7c-0.3,0-0.6,0.1-1,0.2
		c-2.1,0.2-4.2,0.6-6.5,1.1L230.8,251.2z M248.6,307.1c-2.7,0.5-5.3,0.9-7.9,1.2c-1.2,0.1-2.3,0.3-3.4,0.5c-1,2.2-1.9,4.4-2.8,6.5
		c0,0.7,0.4,1.1,1.3,1.2c2.7,0.6,5.1,1.3,7.3,2.1c1.4-2,2.6-4,3.7-6C247.6,310.8,248.2,308.9,248.6,307.1z M248.8,269.1v7.7
		c1.3-0.5,2.4-0.9,3.4-1.2c1.1-0.5,2.1-0.7,3.1-0.7c1.6,0,3,0.6,4.2,1.8c0.5-0.9,0.9-1.9,1.1-2.8c0.3-1.3,0.5-2.4,0.5-3.3
		c0-2.2-0.9-3.3-2.8-3.3C255.1,267.9,251.9,268.5,248.8,269.1z M249.1,240.7v6.1c0.8-0.2,1.5-0.5,2.3-0.9c0.9-0.4,1.7-0.5,2.6-0.5
		c0.9,0,1.7,0.2,2.6,0.5c0.5-2.1,1-4.1,1.3-6C254.9,240.3,252,240.5,249.1,240.7z M249.2,223.4v9.3c3.3-0.7,6.7-1.4,10-2.1
		c0.2-2.1,0.3-4,0.3-5.6c0-2.2-0.9-3.3-2.6-3.3C254.4,222.3,251.8,222.9,249.2,223.4z M296.7,202c2.8,0,6.5,1.3,11,4
		c3.8,2.1,5.7,4.2,5.7,6.3c0,1.2-0.5,2.4-1.5,3.7c-1,0.8-1.6,1.8-1.9,3c-4.7,11.9-9.1,21.4-13.1,28.6c-1.1,1.9-2.2,3.6-3.2,5.3
		c6.4-2.1,13-4.6,19.9-7.4c2.3-0.9,4.4-1.4,6.3-1.4c2.6,0,5.5,0.9,8.7,2.8c3.3,1.9,5,4,5,6.3c0,2.5-1.3,3.8-3.9,4
		c-2.7,0.2-5.7,0.6-9.1,1.1c-3.3,0.5-7.3,1.2-12,2.1c0.8,0.5,1.6,0.9,2.4,1.4c3.8,1.3,5.7,3.3,5.7,6.1c0,0.4-0.3,1.2-1,2.5
		c-1.4,2.2-2.4,4.6-2.9,7.2c-1.6,12.7-4.2,22-7.8,27.7c8.7,8.9,22.9,17.4,42.6,25.6c0,1.8-1.1,2.8-3.2,3.2c-13.6,2.7-21.6,4-23.9,4
		c-3.5,0-5.8-1-7.1-3c-4.6-6.5-9.5-13.8-14.7-21.9c-3.9,3.7-8.6,6.8-14.1,9.3c-6.3,2.9-12.4,4.4-18.4,4.4c-1.3,0-1.9-0.2-1.9-0.7
		c9.3-4.1,17.2-9.5,23.6-16.1c1.9-1.9,3.6-3.9,5-6c-2.2-3.6-4.4-7.4-6.6-11.2c-3.1-5.4-6.5-9.5-10.2-12.4c-1.3-0.4-1.9-1.7-1.9-4
		c0-0.9,1.5-1.4,4.4-1.4c1.7,0,3.6,0.5,5.5,1.4c2.3,2.3,4.5,5.4,6.8,9.3c1.7,3.3,3.8,6.6,6.3,10c0.4-1.5,0.8-3,1.1-4.4
		c1.9-6.5,2.9-14.1,2.9-22.6c0-3.6-0.4-6-1.1-7c-2.1,0.4-4.2,0.7-6.5,1.1c-0.6,0.1-1.1,0.2-1.5,0.2c-1.5-0.3-3-0.9-4.4-1.6
		c-1.9,2.2-3.7,4.1-5.3,5.8c-2.4,2.3-3.8,3.5-4.4,3.5c-0.4,0-0.6-0.4-0.6-1.2c4.4-10.7,8-20.7,10.8-30c2-7.4,3.7-14.8,4.9-22.4
		c0.6-4.6,1-7.7,1-9.3v-4.4C293.9,202.4,294.8,202,296.7,202z"/>
</g>
</svg>
