<?xml version="1.0" encoding="utf-8"?>
<!-- Generator: Adobe Illustrator 19.0.0, SVG Export Plug-In . SVG Version: 6.00 Build 0)  -->
<svg version="1.1" id="Layer_1" xmlns="http://www.w3.org/2000/svg" xmlns:xlink="http://www.w3.org/1999/xlink" x="0px" y="0px"
	 viewBox="0 0 371 371" style="enable-background:new 0 0 371 371;" xml:space="preserve">
<style type="text/css">
	.st0{fill:#333333;}
	.st1{fill:none;stroke:#FFFFFF;stroke-width:5;stroke-miterlimit:10;}
	.st2{fill:#F57E20;}
</style>
<rect id="XMLID_1485_" x="0" y="0" class="st0" width="371" height="371"/>
<circle id="XMLID_1690_" class="st1" cx="185.5" cy="185.5" r="142.3"/>
<path id="XMLID_1650_" class="st2" d="M262.8,123.8c-10.6,0-15.3,10.7-18.4,19.9c-4.1,12-7.6,24.1-11.8,36.1
	c3.2-21,7.2-41.9,11-62.8c2.4-13.4,8.7-42-13.6-39.2c-14.8,1.9-14.4,23.6-16.6,35.2c-3.9,20.8-8.1,41.6-11.5,62.6
	c1.3-29.7,0-59.7,0-89.4c0-4.1,0-8.3,0-12.4c0-13-19.7-14.6-26.2-7.2c-4.3,4.8-4,12.5-4,18.7c0.1,9,0.2,18,0.3,27.1
	c0.2,20.1,0.6,40.3,0.2,60.4c-4.2-22.7-9.1-45.4-12.8-68.2c-2.1-13.1-7.7-35.2-25.3-24.6c-7.4,4.5-7.3,15-6.4,22.8
	c1.4,12.4,3.9,24.8,5.5,37.2c3.2,25.4,6.7,50.8,9.6,76.3c-4.9-10-8.8-20.6-13.5-30.8c-3.3-7.2-6.4-18-14.6-20.4
	c-7.2-2.1-17.8,2.3-19.6,10.5c-2,9.2,4.8,21.6,7.8,29.9c13.6,37.8,24.5,92.6,68.4,102c41.3,8.8,85.2-22.2,84.3-68.9
	c-0.2-10.1-1.9-20.2,0.6-30.1c3-12,8-23.4,11.6-35.1C271.6,161.2,287.2,123.8,262.8,123.8"/>
</svg>
