<?xml version="1.0" encoding="utf-8"?>
<!-- Generator: Adobe Illustrator 19.0.0, SVG Export Plug-In . SVG Version: 6.00 Build 0)  -->
<svg version="1.1" id="Layer_1" xmlns="http://www.w3.org/2000/svg" xmlns:xlink="http://www.w3.org/1999/xlink" x="0px" y="0px"
	 viewBox="0 0 371 371" style="enable-background:new 0 0 371 371;" xml:space="preserve">
<style type="text/css">
	.st0{fill:#333333;}
	.st1{fill:#F57E20;}
	.st2{fill:#FFFFFF;}
	.st3{fill:#FFFFFF;stroke:#FFFFFF;stroke-miterlimit:10;}
</style>
<rect id="XMLID_1415_" class="st0" width="371" height="371"/>
<path id="XMLID_1201_" class="st1" d="M213,356H82c-5,0-9-4-9-9v-320c0-5,4-9,9-9h131c5,0,9,4,9,9v320C222,351.9,218,356,213,356z"
	/>
<g id="XMLID_1161_">
	<path id="XMLID_1162_" class="st2" d="M166.5,91.2c3,0,6.9,1.5,11.7,4.6c3.8,2.6,5.7,5.1,5.7,7.5c0,0.9-0.8,2-2.3,3.2
		c-1.5,0.7-2.5,1.6-2.9,2.8c-7.4,10.6-14.2,19.2-20.2,25.8c-8.2,7.8-15.8,13.7-22.7,17.5c-3.6,2.2-5.9,3.3-7,3.3
		c-0.4,0-0.6-0.5-0.6-1.4c9.4-9.9,17.1-19.1,23.1-27.5c4.3-6.8,7.8-13.7,10.4-20.7c1.5-4.2,2.3-7.1,2.3-8.6l-0.8-5.1
		C163.1,91.6,164.2,91.2,166.5,91.2z M179.4,53.3h6.1c2.3,0.8,4.5,1.7,6.6,2.6c4.6,3.2,8.3,7.5,10.8,13
		c9.8,19.9,18.2,34.3,25.1,43.5c5.1,7.6,10.2,13.6,15.5,17.9c3.1,2.3,12.8,7.7,29.1,15.9c4.1,1.9,6.1,3.4,6.1,4.7
		c0,0.8-0.5,1.5-1.6,1.9H248c-9,0-14.6-1.8-17-5.4c-5.1-8.6-15.8-30.5-32-65.7c-3.9-8.9-7.8-14.8-11.7-17.9c-2.8-3-5.9-4.8-9.2-5.4
		c-1.4,0-2.1-1.2-2.1-3.7C176,53.8,177.1,53.3,179.4,53.3z"/>
	<path id="XMLID_1172_" class="st2" d="M168.9,229c0.6,0,1.6,0.1,2.8,0.4c1.1,0.2,2.1,0.4,3.1,0.4c4,0,8.6-0.5,13.9-1.4
		c6.1-0.9,11.4-2.2,15.9-3.7c3.5-1.2,6.8-2.6,10-4.2c0.4-0.4,0.8-0.5,1.1-0.5c1.4,0,4.6,1.6,9.5,4.7c5.7,4,8.6,7,8.6,9.1
		c0,1.4-1,2.4-2.9,3c-3.9,1.4-8.3,3.5-13.1,6.3c-3.9,2.3-8.7,5.7-14.6,10H203c2,1.8,3.7,3.9,5,6.5c0.4,0.9,0.8,1.8,1.1,2.5
		c14.2-1.9,25.9-3.7,35.1-5.6c1.1-0.1,2.1-0.2,3.1-0.2c3.5,0,7.5,1.3,12.3,3.9c4.2,3.5,6.3,6.9,6.3,10.2c0,4.2-1.5,6.3-4.4,6.3
		c-3.2,0-8.7-0.4-16.5-1.2c-4.7-0.9-8.7-1.4-12-1.4c-7.1,0-13.7,0.1-19.7,0.2v0.2c1.5,6,2.3,11.9,2.3,17.7c0,14.7-2,25.2-6,31.5
		c-3,6.2-6.2,9.3-9.5,9.3c-2.2,0-3.7-1-4.7-3c-3.8-5.8-9.3-11.6-16.7-17.3c0-0.9,0.4-1.4,1.3-1.4c0.2,0,1.2,0.5,3.1,1.4
		c3,0.9,6.1,1.4,9.2,1.4c2.7,0,4.5-2.3,5.5-6.8c1.5-5.8,2.3-10.9,2.3-15.1c0-6.2-0.3-11.9-0.8-17.2c-4.9,0.4-9.2,0.8-13.1,1.2
		c-10.5,0.9-20.7,2.6-30.6,5.1c-2.1,0.8-4.1,1.2-6.1,1.2c-2.9,0-6.1-1.6-9.7-4.9c-3-3.2-4.5-5.3-4.5-6.5c0-0.9,0.5-1.4,1.5-1.4
		c7.7,0,24.3-1.5,50-4.4c3.8-0.5,7.4-1,10.8-1.6c-0.4-1.6-0.9-2.9-1.3-3.9c-0.9-2.8-2.6-5.5-5.3-8.2c-0.9-0.9-1.3-1.6-1.3-2.1
		c0-1.1,0.4-1.6,1.3-1.6h3.4c2.3,0.8,4.2,1.8,5.8,3c3.3-4.6,7-10.2,10.8-16.8c0.4-0.7,0.6-1.2,0.6-1.6c0.3-0.9-0.3-1.4-1.9-1.4
		c-1.8,0-4.3,0.4-7.3,1.2c-5.1,1.2-11,3.2-17.6,6c-3.1,1.3-5.3,1.9-6.6,1.9c-1.8,0-4.3-1.6-7.4-4.7c-2.1-2.3-3.1-4.2-3.1-5.6
		C167.6,229.3,168,229,168.9,229z M158.7,198.2c1.4,0,2.9,1.5,4.5,4.6c0.8,1.8,1.3,3.3,1.6,4.7c18.9-1.4,43.7-4.9,74.4-10.5
		c1.6-0.2,3-0.4,4.2-0.4c2.3,0,6.5,2.3,12.8,6.8c6.9,6.8,10.4,11,10.4,12.8c0,1.9-2.3,2.8-7,2.8c-7.2,0-16.6,1.5-28,4.4
		c-0.9,0-1.3-0.2-1.3-0.7c0-0.5,1.9-2.6,5.8-6.3c3.1-3.4,4.7-5.5,4.7-6.5c0-0.2-0.3-0.6-0.8-1.2c-1.2-0.5-2.4-0.7-3.7-0.7
		c-10.6,0-21.7,0.8-33.3,2.5c-9.2,1.3-21,3.5-35.6,6.7c-1.6,0.5-2.9,0.8-3.7,1.1c-0.5,1.5-1.1,3-1.6,4.6c-2.3,5.5-4.4,9.2-6.3,11.2
		c-1.3,1.4-2.5,2.1-3.6,2.1c-2.2,0-4.2-1.1-6-3.3c-1.2-1.6-1.8-3.6-1.8-5.8c0-2.1,0.4-3.8,1.3-5.1c3-3.5,6.5-10.7,10.5-21.6
		C156.8,198.9,157.6,198.2,158.7,198.2z M189.6,175.1c3,0,6.9,0.9,11.7,2.6c4.5,1.5,7.5,3.2,8.9,4.9c1.5,1.6,2.3,3.5,2.3,5.6
		c0,5.6-2.9,8.4-8.6,8.4c-2.3,0-5.3-2.9-9.1-8.6c-4.3-6.3-6.5-10.2-6.5-11.6C188.3,175.6,188.7,175.2,189.6,175.1z"/>
</g>
<line id="XMLID_1269_" class="st3" x1="98.3" y1="42.6" x2="98.3" y2="335.5"/>
</svg>
